<?xml version="1.0" encoding="UTF-8"?>
<svg id="Layer_1" xmlns="http://www.w3.org/2000/svg" version="1.1" viewBox="0 0 595.28 665.52">
  <!-- Generator: Adobe Illustrator 29.7.1, SVG Export Plug-In . SVG Version: 2.1.1 Build 8)  -->
  <defs>
    <style>
      .st0 {
        fill: #050505;
      }

      .st1 {
        fill: #010101;
      }

      .st2 {
        fill: #353435;
      }

      .st3 {
        fill: #141313;
      }

      .st4 {
        fill: #fcfafa;
      }

      .st5 {
        fill: #1f1e1f;
      }

      .st6 {
        fill: #181718;
      }

      .st7 {
        fill: #3c3b3c;
      }

      .st8 {
        fill: #252525;
      }

      .st9 {
        fill: #2d2d2d;
      }
    </style>
  </defs>
  <path class="st1" d="M149.01,26.32c-4.34,2.14-8.05,5-10.37,9.3-.85,1.58-1.07,3.5-1.58,5.27l.74.14q5.05-8.62,14.09-14.83c.84-.58,1.45-1.49,2.16-2.24M174.13,13.79c13.22-.02,25.72,0,36.18,1.41,10.28,2.3,47.27,9.9,47.87,10.18,5.18,2.44,9.45,5.9,12.52,10.8.49.77,1.33,1.44,2.16,1.86,6,3.09,10.69,7.52,14.05,13.61,3.72,9.89,1.98,19-2.84,27.82-.53.96-.67,2.14-.98,3.38.15.59.29,1.02.44,1.69.03,1.07.06,1.89.08,2.96,0,1.09,0,1.94,0,3.03-.03.93-.05,1.62-.1,2.39-.06.23-.03.36-.08.6-.24.35-.35.57-.56.93-.41.73-.73,1.33-1.15,2.04-.21.29-.32.47-.46.86-.85,2.22-1.8,4.23.15,6.31.98.69,2.44,1.31.62,2.29-2.2,1.18-2.25,3.01-1.76,4.96.69,2.8,1.49,5.58,2.4,8.32,1.48,4.49,3.24,8.89,4.58,13.42,1.11,3.77.15,6.07-3.21,8.15-2.02,1.24-4.29,2.09-6.51,2.98-1.96.78-4.01,1.42-3.17,4.18,2,6.52-3.91,11.14-4.11,17.17-.03.94-1.7,1.77-2.43,2.78-.58.81-.9,1.81-1.31,2.94.08,3.02.13,5.82.2,8.61.02-.01-.01-.04-.14.14-.25.75-.37,1.32-.46,1.9.02,0,.03-.04-.09.08-.25.45-.37.77-.47,1.08.02,0,.01-.05-.11.12-.24.56-.36.95-.66,1.4-2.86,3.67-6.63,5.45-11.16,6.43-4.31-.16-8.34-.33-12.55-.58-.67-.18-1.17-.29-1.85-.41-.42-.04-.67-.04-1.12-.08-.48,0-.76.03-1.03.08,0,.02.02,0-.03-.14-.22-.23-.39-.33-.78-.47-2.68-.6-5.14-1.15-7.72-1.82-.32-.22-.52-.31-.91-.3-2.1,6.76-4.08,13.4-5.83,20.1-.18.71.83,2.13,1.65,2.63,5.46,3.38,11.12,5.96,17.81,6.38,4.22.27,8.42,1.91,12.49,3.34,7.19,2.53,14.26,5.37,21.51,8.2.33.24.54.35.92.57,3.51,2.17,6.85,4.24,10.34,6.43.48.34.81.55,1.25.88.72.57,1.35,1.02,2.03,1.45.07,0,.15-.12.2.02.16.31.32.41.53.44,0,0,.02,0,.07.17.21.34.36.51.63.83,2.11,2.28,4.11,4.4,6.18,6.7.28.45.5.74.71,1.01,0-.02-.04-.02.02.13.22.25.39.36.56.46,0-.02-.03-.02.03.16.22.36.39.54.58.8.02.08.11.22.19.38,5.48,7.95,9.57,16.42,12,25.53,4.73,17.74,10.66,34.93,20.28,50.71,3.15,5.17,5.8,10.64,8.89,16.37,1.72-2.32,3.2-4.42,4.79-6.43,5.93-7.48,11.9-14.94,18-22.49.6-.56,1.06-1.03,1.65-1.61.24-.29.35-.47.44-.66-.02,0,0,.03.14-.02.25-.22.36-.39.45-.56-.01,0-.01.03.17-.03.36-.22.54-.39.87-.65,5.14-3.96,10.12-7.84,15.12-11.71,2.18-1.69,4.38-3.34,6.78-5.03,5.59-2.15,10.89-4.5,16.36-6.36,5.46-1.86,9.99-4.93,14.08-8.89,2.04-1.97,2.51-3.69,1.01-6.29-3.56-6.18-5.11-12.94-4.52-20.06,1.33-15.88,10.39-26.84,22.99-35.43.89-.6,2.17-.61,3.44-.79,5.49,3.14,5.49,3.2.61,6.86-.46.35-.98.64-1.4,1.04-2.06,1.94-4.09,3.9-6.67,6.38,1.58.26,2.21.47,2.83.46,4.45-.06,8.9-.19,13.35-.24,3.39-.03,6.79-.11,10.16.17.95.08,2.01,1.23,2.59,2.16.18.29-.88,1.78-1.65,2.17-4.34,2.23-5.67,6.49-7.99,10.81,1.58.12,2.6.28,3.62.26,3.68-.08,7.35-.23,11.03-.32,1.8-.04,4.26-.49,4.34,2.05.08,2.51-2.53,1.97-4.08,2.05-4.83.26-9.68.38-14.51.31-3.25-.05-5.74.9-6.96,4.05-1.28,3.32-2.44,6.68-3.66,10.29.59,11.15-.34,21.72-6.42,31.23-1.14,1.79-2.03,3.75-3.19,5.52-4.24,6.46-8.52,12.89-12.85,19.3-1.05,1.55-1.86,3-.28,4.65,3.34,3.48,6.68,6.97,10.07,10.65,1.42,2.6,1.29,4.6-1.41,6-2.63,1.36-5.28,2.7-7.82,4.23-1.32.79-2.4,1.99-3.63,2.95-1.37,1.06-2.79,2.05-4.46,3.09-2.26-.15-4.27-.25-6.25-.53-2.46-.35-4.89-.85-7.53-1.25-1.02.66-2.02,1.14-2.66,1.91-1.88,2.27-3.62,4.66-5.56,7.14-5.07,6.43-9.99,12.72-15.03,19.14-.25.33-.36.53-.46.72.02-.01,0-.06-.13.06-.25.44-.36.77-.46,1.09.02,0,0-.03-.14.02-.25.22-.36.39-.45.56.02,0,.01-.04-.13.07-.25.43-.36.76-.45,1.05.02-.03-.04-.07-.22.02-4.84,6.79-9.51,13.49-14.18,20.2-.43-.21-.87-.41-1.3-.62,1.18-3.5,2.34-7.01,3.56-10.5.44-1.27,1.33-2.47,1.44-3.75.08-.94-.59-2.18-1.32-2.85-.43-.39-1.79-.19-2.47.19-5.71,3.22-11.52,6.31-16.99,9.9-6.61,4.34-12.93,9.14-19.38,13.73-1.56,1.11-1.88,2.35-.63,3.9.67.83,1.3,1.68,1.93,2.55,9.37,12.87,21.81,22.23,35.09,30.63,1.1.7,2.03,1.67,3.64,3.01-4.76,1.07-8.04-.63-10.76-2.45-6.88-4.61-13.72-9.41-19.95-14.84-5.14-4.47-9.45-9.91-14-15.03-1.39-1.56-2.3-1.7-4.07-.44-5.86,4.21-11.88,8.21-17.88,12.22-1.57,1.05-2.25,2.14-1.55,4.1,1.41,3.91,2.64,7.88,3.9,11.84.49,1.55,1.31,3.55-.79,4.21-.94.29-2.42-1.13-3.68-1.98-1.54-4.6-3.05-8.99-4.59-13.45-4.74,1.7-3.56,5.17-3.54,8.46,0,1.62,0,2.98-.02,4.55-.18.83-.33,1.46-.6,2.59-1.01-1.24-1.64-2.02-2.29-3.04-.08-1.31.07-2.44-.27-3.4-.39-1.09-1.53-2.96-1.8-2.87-1.46.49-2.96,1.28-4.01,2.38-.56.59-.23,2.02-.31,3.07-.1,1.36-.2,2.72-.31,4.08-.44.08-.88.16-1.32.23-.46-1.47-.93-2.94-1.44-4.55-.2-.26-.35-.38-.69-.48-.63.22-1.07.42-1.69.71-1.22.62-2.26,1.16-3.51,1.7-2.58.99-4.94,1.97-7.54,2.93-.88,0-1.52,0-2.29,0-.13-.02-.39-.01-.59-.13-.44-.29-.69-.46-.87-.84.26-.59.46-.97.74-1.39.19-.1.27-.2.48-.42.63-.51,1.11-.92,1.57-1.33-.01,0,0,.02.16-.04.65-.41,1.14-.76,1.6-1.12-.02,0-.04.04.11-.02.26-.22.37-.39.46-.56-.02,0-.02.03.17.03.51-.19.82-.39,1.3-.7,7.75-4.8,15.34-9.48,23.08-14.27.25-.32.36-.53.51-.67.04.08.22.07.4.04,7.99-5.39,15.9-10.61,23.57-16.15,13.39-9.66,26-20.48,41.07-27.66.86-.41,1.6-1.08,2.37-1.65-.02-.02-.07.02.07-.04.25-.23.37-.39.46-.56-.02,0-.02.03.16.02.46-.21.74-.4,1.01-.59-.02,0-.02.04.15-.02.45-.41.74-.77,1.02-1.14-.01-.01,0,.02.18.03.51-.19.82-.39,1.29-.69,1.16-1.17,2.17-2.25,3.29-3.46.24-.46.36-.79.46-1.12-.02,0,0,.03.15-.01.25-.21.35-.38.43-.56-.02,0,0,.02.18-.02.45-.41.72-.78.98-1.16-.01,0-.02.03.14-.03.33-.22.49-.38.8-.66,4.34-5.84,8.54-11.55,12.88-17.39,1.35-1.21,2.42-2.59,3.81-3.37,7.6-4.26,15.62-6.09,24.3-3.85,1.95.5,4,.72,6.01.82.71.04,1.46-.67,2.2-1.03-.45-.66-.76-1.54-1.38-1.93-1.63-1.03-3.42-1.81-5.1-2.77-7.57-4.32-15.39-3.58-23.55-1.2-1.81.22-3.38.45-5.14.65-.87-.51-1.54-.99-2.01-1.57.56-.33.93-.56,1.5-.81,2.67-.85,5.13-1.72,7.61-2.51,9.61-3.06,18.49-1.42,26.79,4.12,1.11.74,2.36,1.53,3.63,1.71.96.13,2.05-.68,3.08-1.07-.4-.8-.62-1.8-1.24-2.35-2.6-2.31-5.29-4.51-8-6.69-6.07-4.87-12.93-6.21-20.48-4.53-3.11.69-6.25,1.31-9.39,1.8-1.35.21-2.76.04-4.14.04-.04-.34-.08-.68-.12-1.02,1.41-.74,2.83-1.48,4.34-2.23.11-.01.31-.05.46-.11.31-.22.47-.37.72-.52.1,0,.3,0,.47-.03.45-.2.73-.37,1-.55-.02,0-.02.03.17.03.66-.2,1.12-.39,1.57-.6-.02,0-.01.03.23.03,2.78-.42,5.31-.83,8.08-1.23.7,0,1.16-.01,1.83-.01.61,0,1.01,0,1.63,0,.51,0,.8-.01,1.33,0,1.03.12,1.82.21,2.79.39,4.27,2.2,8.51,4.08,12.42,6.51,3.18,1.97,5.89,4.71,8.97,6.86.87.6,2.35.33,3.54.47-.36-1.12-.38-2.6-1.12-3.31-4.13-3.93-8.39-7.72-12.69-11.46-7.94-6.9-16.95-8.86-27.24-5.48-1.41.34-2.6.62-3.94.92-.46.11-.75.2-1.28.34-.84.1-1.45.17-2.23.23-.29,0-.4,0-.64.07-.26.16-.36.3-.42.43.02-.03-.02-.08-.26-.08-1.85-.36-3.47-.72-5.01-1.21.13-.23.18-.32.42-.47,7.2-1.72,13.36-4.97,18.78-9.7,1.67-1.46,3.5-2.78,5.42-3.87,6.47-3.67,13-7.23,19.52-10.8,2.78-1.52,5.07-3.51,7.19-6.73-19.97,2.7-35.81,12.04-50.29,24.63-.36.32-.55.52-.8.7-.06-.02-.2-.02-.36.06-.65.61-1.14,1.14-1.61,1.69.01.01.03-.02-.13.05-.33.22-.5.38-.78.61-.35.34-.58.62-.94,1-.24.3-.36.49-.45.68.02,0,0-.03-.14.03-.25.22-.36.38-.46.53.01-.01-.02-.02-.2.06-2.6,2.82-5.02,5.56-7.59,8.45-3.19,4.26-6.33,8.32-9.26,12.52-7.71,11.08-14.45,22.98-26.27,30.79-.54.39-.91.72-1.32.94-6.64,3.5-13.29,6.98-20.16,10.5-1.98.81-3.74,1.6-5.51,2.37-12.39,5.45-24.59,11.42-37.23,16.22-18.11,6.87-37.15,9.87-56.38,11.76-10.68,1.05-21.33,2.34-32.2,3.54-.55.19-.9.36-1.47.49-.93.01-1.65.07-2.55.18-1.29.06-2.39.05-3.5.05.62-.84,1.21-1.7,1.86-2.52.17-.21.49-.29.75-.43,4.43-2.38,4.45-2.39,2.71-7.08-3.79-10.25-7.82-20.42-11.35-30.77-5.58-16.33-14.4-30.98-23.28-45.59-5.39-8.87-9.81-18.11-12.6-28.14-3.72-13.42-7.48-26.83-11.53-40.14-1.22-4.02-3.22-7.89-5.35-11.53-2.28-3.9-6.5-5.91-9.78-4.61-8.47,3.36-15.15,8.79-18.59,17.73-.25.26-.36.43-.45.61.02,0,0-.04-.13.08-.25.44-.36.77-.45,1.09.02,0,0-.05-.14.06-.25.44-.36.78-.45,1.1.02,0,.01-.05-.12.09-.26.48-.39.82-.52,1.21,0,.04.05.11-.09.28-.25.75-.35,1.33-.44,1.9.01,0-.01-.03-.17.11-1.1,4.71-2.05,9.28-3.07,14.04-.12.84-.15,1.5-.21,2.43-.37,8.53.23,16.7,2.27,24.96.07.65.13,1.09.23,1.72.34,1.1.64,2.01.93,3,0,.08.03.24.03.43.02.44.04.7.11,1.16,1.82,6.08,3.37,12.03,5.42,17.8,3.17,8.91,6.55,17.76,10.09,26.53,7.59,18.85,16.21,37.21,26.24,55.11.46.81.84,1.46,1.28,2.29,1.39,2.46,2.72,4.72,4.16,7.17,1.13,1.92,2.16,3.66,3.16,5.41,2.72,4.76,5.53,9.47,8.05,14.32.47.9-.24,2.41-.4,3.64-1.1-.23-2.53-.12-3.25-.77-1.59-1.46-2.83-3.3-4.23-4.99-.02,0,0,.03-.01-.17-.2-.55-.4-.91-.65-1.44-2.38-4.05-4.67-7.95-7.03-11.8-1.2-1.96-2.53-3.84-3.86-5.93-.44-.73-.8-1.29-1.17-1.84-.16.07-.32.15-.48.22.05.41.1.83.19,1.49.1,1.26.17,2.26.21,3.54-.19,4.53-.35,8.78-.54,13.29-.01,1.27,0,2.29-.02,3.55-.2,1.8-.38,3.36-.73,5.02-3.07.85-3.16-1.16-3.2-3.07-.12-6.34-.17-12.68-.25-19.28-.14-2.08-.38-3.9-.42-5.73-.18-7.47-2.43-14.37-5.78-21.05-.18.1-.31.27-.41.69.35,13.42.91,26.6-1.38,39.86,0,.43.02.67-.02,1.12-.2.86-.35,1.53-.55,2.38-.91,2.6-1.89,2.1-2.93.07-.02-1.01-.03-1.79,0-2.64.13-.27.09-.45.02-.8.19-1.04.3-1.89.43-3,.14-3.52.26-6.77.44-10.3.02-14.93,1.67-29.75-4.1-43.89,0,18.31-.64,36.52-4.58,54.28-.23-6.26-.31-12.32-.33-18.61.2-1.76.45-3.3.46-4.83.04-12.45.41-24.91-.14-37.33-.2-4.49-2.61-8.89-4.03-13.5-.2-.54-.37-.91-.55-1.28-.23.03-.45.06-.68.1,0,5.47,0,10.95-.08,16.65-.18,1.56-.27,2.9-.37,4.24-.73,9.57-1.46,19.14-2.22,28.95-.22,2.57-.4,4.89-.67,7.4-.22.86-.35,1.54-.51,2.46-.11,1.58-.2,2.91-.34,4.4-.11.5-.15.85-.23,1.43-.82,4.81-1.5,9.4-2.46,13.93-.39,1.85-.74,4.75-3.33,4.24-2.64-.52-1.69-3.23-1.47-5.18,1.4-11.98,2.82-23.96,4.27-36.18.41-4.37.78-8.49,1.18-12.87.03-1.81.03-3.37.04-5.16.02-.83.04-1.44.18-2.25.41-5.89.71-11.57.97-17.26.59-12.8-1.61-25.15-5.5-37.34-5.07-15.89-8.68-32.04-6.66-48.95,1.47-12.33,5.49-23.52,14.41-32.47,2.5-2.51,5.48-4.55,8.23-6.82,0-.02-.03,0,.14-.05.36-.22.54-.38.84-.55.32-.11.53-.23.86-.46.24-.31.36-.51.45-.71-.02,0,0,.03.14-.03.25-.22.36-.38.45-.56-.02,0-.02.03.15-.04.35-.23.53-.39.77-.58.06-.03.22-.25.35-.38.25-.33.36-.54.46-.75-.02,0,0,.03.14-.03.25-.22.36-.39.45-.56-.02,0-.02.03.15-.04.36-.23.55-.38.85-.54.32-.1.52-.2.89-.42.35-.33.54-.54.87-.85,6.35-4.08,12.56-8.06,18.98-12.06,5.7-3.07,11.18-6.1,16.85-9.22,1.6-1.06,3.02-2.03,4.57-3.08.46-.35.77-.63,1.26-1.01,9.29-6.83,14.89-15.82,17.48-26.95.13-.45.18-.77.3-1.3.29-1.4.51-2.59.85-3.98.79-3.5,1.47-6.81,2.24-10.54-3.66,1.02-6.57,1.83-9.72,2.6-4.73-.87-8.53-2.97-11.8-6.16-1.29-1.26-2.64-2.52-4.16-3.45-2.05-1.25-4.3-2.18-6.57-3.41-7.47-5.94-11.75-13.7-14.55-22.68-.35-2.33-.84-4.41-.99-6.52-.15-2.16-1.2-3.26-3.18-3.93-1.9-.64-3.81-1.4-5.51-2.43-4.85-2.94-7.33-7.67-8.57-12.93-1.01-4.28-1.34-8.71-2.04-13.26-.52-1.14-.94-2.13-1.44-3.06-5.16-9.47-2.26-23.12,5.39-28.46,1.23-.86,2.17-2.81,2.36-4.37,1.98-15.61,9.31-23.6,24.84-26.08,2.33-3.38,32.44-14.8,51.85-15.89M200.62,94.3s-.16-.08-.16-.02c0,0,.15.08.16.02M201.75,92.55s-.03,0-.05.02c0,0,.03,0,.05-.02M137.79,90.25s-.03,0-.03-.03c0,0,.02,0,.03.03M304.62,350.67s-.02-.04-.3.18c-.11.33-.22.67-.28.99,0,0-.01-.05-.25.22-.13.33-.26.67-.63,1.32-2.22,3.63-4.4,7.29-6.67,10.88-1.4,2.22.65,8.66,3.12,9.41.42.13,1.01.1,1.39-.1,6.44-3.31,12.86-6.66,19.66-10.17,5.42-3.19,9.58-7.69,13.59-12.46,3.08-3.66,3.26-6.81.93-10.94-5.42-9.59-10.8-19.23-15.5-29.18-3.61-7.64-6.16-15.78-9.19-23.88,0,0-.04-.17-.02-.56-.03-.26-.07-.52-.19-1.21-2.85-8.11-5.17-16.46-8.68-24.27-5.52-12.26-14.38-21.71-26.63-27.69-.5-.25-1.1-.31-2.21-.61,9.41,14.23,15.25,29.32,19.27,45.17,2.22,8.75,5.15,17.22,9.51,25.58.24.28.47.57.68.82,0,0-.03.03-.07.48.31.91.59,1.83.93,2.73,3.04,8.19,5.69,16.52,4.86,25.38-.53,5.63-1.85,11.18-2.78,16.77,0,0,0-.03-.31.16-.09.34-.19.68-.25,1M226.72,261.12s-.02.04.32-.04c.3-.18.59-.35.84-.54,0,0-.01.05.31-.09.18-.16.35-.32.82-.69,1.97-2.12,4.03-4.16,5.88-6.37,4.42-5.28,8.46-10.82,10.49-17.52,1.87-6.16.07-10.28-5.78-13.08-4.1-1.96-8.28-3.73-12.41-5.62-2.07-.95-4.11-1.98-6.87-3.32-.62,3.96-1.16,7.34-1.81,11.18-.35,3.47-.7,6.93-1.3,10.18-.33-.65-.66-1.31-1.03-2.45.13-7-.37-14.08.55-20.98,1.06-7.89,3.37-15.61,5.18-23.4.5-2.17.77-4.11-2.64-4.6-3.99-1.87-8.1-3.54-11.94-5.68-3.04-1.7-5.87-3.84-8.57-6.05-2.38-1.95-4.84-4.01-6.6-6.49-3.89-5.48-6.29-11.67-7.02-18.35.63.97,1.25,1.93,1.99,3.24.21.28.42.56.63.81,0,0-.04,0,.05.31.17.11.34.21.35.41,0,0,0,.18.05.56,7.28,14.12,19.86,21.52,34.29,26.85,0,0,.11-.18.18.13.18.09.37.19.56.24,0,0-.04,0,.2.24.32.11.64.23,1.34.55,7.99,2.62,15.99,5.39,24.5,5.29,3.46-.04,7.18-.61,10.29-2.02,4.12-1.87,5.64-11.19,2.45-13.48-2.51-1.81-2.44-2.84.02-4.3.42-.25.62-.86,1.16-1.68-1.26-.39-2.21-.69-3.16-.99-2.14-.67-3.21-1.83-2.96-3.34,0,0,.12-.05.45.2.39.12.78.24,1.15.33,0,0-.03.03.34.27.86.21,1.73.43,2.88.88.75.42,1.47.89,2.24,1.25,1.47.69,2.84.72,3.54-1.05.67-1.69-.03-2.77-1.75-3.19-1.47-.36-2.96-.66-4.93-1.04l-10.47-1.14c0-.5-.01-1-.02-1.51,2.52-.31,5.03-.61,8-.98,3.2-.66,6.37-1.52,9.6-1.92,2.44-.31,3.6-1.14,2.86-3.67-.79-2.7.26-4.66,2.36-6.27.46-.35.78-.9,1.39-1.63-2.85.55-5.26,1.27-7.71,1.43-3.85.25-5.93-1.58-6.57-5.73.01-.3.03-.6.04-.96,0,0-.06,0,.2-.25.11-.21.21-.43.51-.88q1.19.36,1.43,2.14c.37,2.79,2.19,4.15,4.61,2.98,3.72-1.81,7.49-2.14,11.53-1.7,3.53.39,5.4-2.11,4.32-5.53-1.01-3.22-2.25-6.36-3.37-9.55-2.61-7.43-4.43-14.99-3.29-23.34,1.73-5.54,3.42-11.08,2.46-17.48-.54-3.93-1.08-7.87-1.69-12.16-.16-.46-.33-.91-.52-1.83-.2-1.19-.4-2.39-.76-3.98-1.64-4.49-2.84-9.21-5.85-12.13-2.31.56-3.96,1.33-5.59,1.3-4.27-.08-7.72,1.37-10.53,4.55-2.75,3.11-5.64,6.1-8.33,9.26-6.48,7.6-13.62,14.31-23.6,16.94-6.01,1.58-10.85,4.3-13.01,10.98-1.88,2.77-3.75,5.55-5.96,8.53-4.76,4.8-10.79,7.06-17.22,8.42-6.04,1.27-6.06,1.21-4.73,7.01.02.09.05.19.07.28.38,2.07.19,4.33-2,4.82-1.57.35-4.09-.2-5.08-1.32-1.57-1.79-2.23-4.38-3.25-6.64-.41-.9-.77-1.81-1.15-2.72-.41.16-.83.31-1.24.47,1.03,3.12,2.05,6.24,3.08,9.36-4.36-1.81-6.26-5.58-8.73-9.05-.31,1.31-.48,2.57-.07,3.6,2.52,6.24,5.65,12.13,10.93,16.51,1.11.92,2.75,1.2,4.64,1.82,3.69.66,4.91-2.27,6.56-4.76-.27,2.85.75,5.93-2.19,7.71-2.69,1.63-5.58,2.19-8.51.55-2.05-1.14-4.05-2.37-6.34-3.71-.53,6.71-1.03,13.03-1.6,19.84-.01,1.17-.02,2.35,0,3.51,0,0-.03-.01-.33.31-.17.87-.34,1.74-.65,2.89-.05.3-.09.61-.23,1.36-.54,2.57-1.08,5.14-1.66,8.06,0,.24,0,.48-.14,1.02-.11.31-.21.63-.41,1.36-.08.56-.16,1.13-.44,2.08-.63,2.27-1.26,4.54-2.02,7.22-1.62,4.02-2.6,8.48-5.01,11.95-3.66,5.27-8.3,9.86-12.81,15.01-6.25,4.24-12.5,8.48-19.14,12.98,12.35,9.55,26.38,14.03,40.3,19.67,6.15,2.4,12.31,4.79,18.76,7.33,2.33.88,4.64,1.84,7,2.62,5.81,1.91,11.64,3.74,17.49,5.58,0,0-.03-.01.29.28.58.1,1.16.2,1.74.27,0,0-.03.02.32.3.57.17,1.15.35,1.99.67.3.06.6.11,1.33.27,1.01.18,2.03.36,3.04.51,0,0-.03.01.27.29.54.12,1.08.24,1.93.48.32-.05.64-.11,1.3.18,2.13.08,4.27.15,6.38.2,0,0-.02.03.33,0,.29-.19.57-.38.82-.59M169.14,364.87c-.18-.29-.37-.58-.53-.81,0,0,.05-.02-.01-.46-1.2-5.1-2.4-10.19-3.61-15.61-.15-.28-.29-.56-.43-1.32.02-1.09.04-2.17.38-3.35.23,0,.45-.02.68.42.76,2.67,1.26,5.46,2.35,7.98,2.15,4.98,4.63,9.81,7.01,14.67,0,0-.04-.04,0,.31.19.29.37.57.57.82,0,0-.04-.01.1.3.16.16.32.32.54.62.05.09.12.17.41.57.23.33.46.67.76,1.16.07.1.15.18.51.57.2.19.39.39.67.94,1.9,2.28,3.67,4.68,5.72,6.81,2.12,2.2,5.5,2.27,8.03.46-1.91-3.42-3.81-6.84-5.86-10.6-.15-.19-.3-.38-.39-.63,0,0,0-.09-.03-.4-.02-.1-.03-.21-.09-.53-.04-.15-.11-.28-.36-.83-.24-.55-.48-1.11-.67-1.77,0,0,0-.12-.05-.58-.75-3.08-1.49-6.16-1.94-9.28.2-.01.4-.02.67.4,3.08,6.07,6.15,12.14,9.4,18.57,2.7,4.83,6.7,6.85,12.22,5.77,1.72-.34,2.96-.88,2.7-3.4v-20.08c.05-.05.11-.09.16-.14.8,4.98,1.61,9.97,2.39,15.37.01.28.02.56.03,1.06,0,0,.02.22,0,.75.03,1.06.05,2.12.11,3.17.12,1.98,1.12,2.82,3.17,2.85,7.02.1,7.59-.35,8.47-7.44.15-1.24.25-2.48.41-4.26.09-5.88.46-11.79-1.65-17.43,0,0,.01-.06.05-.55-.89-7.65-3.43-14.76-7.18-21.91-.36-.76-.73-1.52-1.05-2.37,0,0-.06-.17-.25-.6-.31-1.04-.63-2.07-.67-2.83,2.18,3.71,4.66,7.29,6.48,11.18,2.1,4.49,3.62,9.25,5.3,14.12-.02.16,0,.32.08.9.04.28.08.56.18,1.17.14.31.28.62.43,1.37.04.59.08,1.17.18,2.22.35,2.96.7,5.92,1.01,9.43-.27,4.69-.49,9.38-.84,14.06-.17,2.3,1.31,2.59,2.7,1.96,1.01-.45,2.06-1.81,2.25-2.92.72-4.15,1.11-8.37,1.65-13.08,0-5-.02-10,0-15.37-.16-.58-.31-1.17-.43-2.28-.03-.69-.06-1.37.15-1.91.29.23.59.46.85,1.15.21.54.42,1.08.65,1.59,0,0-.03-.01-.07.44.05.6.1,1.2.15,2.29.5,8.3,1,16.6,1.5,24.9.23.1.46.2.7.29,2.15-6.3,4.3-12.59,6.72-19.24.11-.58.22-1.15.29-1.71,0,0,.02.04.27-.21.12-.33.23-.66.37-1.11,0,0-.02-.13.22-.53.31-1.33.63-2.65.9-3.96,0,0,.02.04.26-.3.11-.68.23-1.36.31-2.02,0,0,.03.02.3-.29.3-1.08.6-2.16,1.09-3.63.33-1.58.67-3.16,1.16-5.03.11-.31.22-.62.43-1.38.24-1.21.49-2.43.83-3.9,0,0,.03-.27.18-.59.06-.46.12-.91.35-1.71.1-.5.2-.99.42-1.84.14-.48.28-.97.5-1.86.18-.81.36-1.63.63-2.88.21-1.16.42-2.32.78-3.8.09-.33.18-.66.37-1.42.2-1,.41-2,.78-3.29.1-.32.2-.63.38-1.39.34-1.33.68-2.66,1.02-4,.5,1.56.63,3.01.48,4.44-1.56,15.06-4.47,29.87-8.92,44.34-1.93,6.29-4.26,12.45-6.45,18.65-.9,2.55-.32,3.52,2.19,2.74,1.6-.5,3.32-1.72,4.23-3.11,1.73-2.66,3.11-5.59,4.28-8.55,7.73-19.62,10.26-40.22,11.25-61.64-.02-8.5-.04-17.01-.05-26.01-.54-6.36-.98-12.73-1.65-19.08-.81-7.63-2.14-15.15-5.64-22.1-.44-.87-1.06-1.65-2.02-3.13-3.32,13.3-10.61,23.19-20.58,31.74,1.93.77,3.18,1.27,4.43,1.77-.04.36-.08.72-.12,1.08-3.22,0-6.6.61-9.65-.11-10.34-2.45-20.81-4.71-30.79-8.27-19.51-6.96-38.71-14.77-58.05-22.18-3.83-1.47-4.54-1.22-5.49,2.73-.29,1.22.69,3.1,1.64,4.21,12.24,14.21,21.69,30.14,29.58,47.56.24.36.48.72.66,1.08,0,0,0,.06.07.52.19.41.38.81.54,1.35,0,0,.02.13.12.55,2.5,7.81,5,15.62,7.58,23.86.26,1.33.52,2.65.56,4.15,0,0-.22.18-.43.05,0,0-.19-.16-.26-.57-.42-1.08-.86-2.16-1.27-3.24-6.16-16-12.36-32.03-21.48-46.62-5.53-8.84-11.86-17.18-17.89-25.7-1.14-1.61-2.54-3.07-4.56-1.08,6,7.72,10.78,16.01,14.46,24.89,7.5,18.1,11.41,37.13,14.47,56.39,2,12.6,4.31,25.15,6.59,38.15.51,1.67.91,3.37,1.53,4.99,3.03,7.88,6.77,10.65,13.87,10.29.8-.04,1.58-.5,2.36-.76-.3-.76-.47-1.61-.94-2.25-2.13-2.88-4.34-5.69-6.66-8.8-.16-.12-.31-.24-.48-.33,0,0,.04,0-.02-.34-.18-.29-.37-.58-.56-.82,0,0,.04.01,0-.33-.19-.29-.37-.58-.57-.83,0,0,.04.02-.02-.33-.18-.29-.37-.58-.56-.83,0,0,.04.01-.02-.33M261.57,366.95s.03.02.28-.22c.12-.32.23-.64.31-.96,0,0,.02.03.25-.22.12-.32.24-.64.33-.94,0,0,.02.03.26-.27.12-.49.24-.98.33-1.47,0,0,.02.02.29-.2.11-.32.22-.65.29-.96,0,0,.02.03.27-.27.11-.49.23-.98.33-1.4,0,0,.07.03.35-.27,4.53-10.73,7.23-21.96,9.44-33.23.16.34.47.69.44,1.02-.45,4.99-.94,9.97-1.58,15.38-2.53,11.56-6.2,22.74-11.48,33.55,1.46-.32,2.57-.87,3.16-1.76,2.66-4.02,5.17-8.14,7.75-12.22.35-.56.78-1.07,1.17-1.61.18.12.35.24.53.36-2.1,4.93-4.2,9.86-6.31,14.78.2.21.4.41.6.62,1.3-.82,2.8-1.43,3.86-2.49,6.31-6.27,11.2-13.55,15.17-21.93.67-1.25,1.28-2.54,2.02-3.75.43-.7,1.08-1.28,1.55-1.44-1.94,10.79-7.56,19.79-14.48,28.45,5.73-.19,17.04-13.46,22.41-25.69,3.63-8.26,4.77-16.87,3.36-25.77-1.53-9.64-4.95-18.62-10.02-27.4-.74-1.23-1.47-2.46-2.33-4-.18-.28-.37-.55-.66-1.22-3.41-6.65-7.43-13.04-8.36-20.74,2.13,3.52,4.25,7.04,6.38,10.55.26-.14.52-.28.78-.42-.11-.64-.16-1.31-.34-1.93-1.82-6.01-3.41-12.11-5.54-18-3.92-10.85-8.34-21.49-16.64-29.92-.65-.67-1.44-1.2-2.17-1.79,6.49,16.18,11.79,32.38,14.35,49.82.15.67.3,1.34.45,2.37-.07.61-.14,1.22-.21,1.83-.94-.94-1.45-1.95-1.77-3.02-3.38-11.29-6.43-22.69-10.23-33.84-1.88-5.51-4.88-10.72-7.89-15.76-2.9-4.86-7.32-8.15-12.94-9.58,0,0,.03,0,.21.33,8.01,7.54,13.03,16.71,14.89,27.55,1,5.79,1.75,11.63,2.69,18,.29,5.81.58,11.62.84,17.96.17,2.07.35,4.14.37,6.72-.03.71-.06,1.41-.18,2.57,0,1.61,0,3.23-.08,5.32-.04.97-.08,1.95-.16,3.46-.16,3.32-.32,6.64-.52,10.34,0,.25-.01.5-.09,1.28-.34,3.54-.69,7.08-1.08,11.11-.21,2.33-.42,4.66-.82,7.32-.1.49-.21.98-.37,1.89-.06.42-.12.85-.38,1.53-.06.31-.11.62-.23,1.41-.1.8-.21,1.61-.47,2.8-1.42,6.07-2.83,12.15-4.23,18.35,0,0,.05.12-.18.55-.12.64-.23,1.28-.32,1.91,0,0-.02-.02-.3.36-.1.46-.21.92-.59,1.64-1.29,3-2.67,5.97-3.83,9.03-.47,1.23-.44,2.64-.64,3.97,1.59,0,3.26.31,4.76-.07,1.09-.27,2.18-1.28,2.87-2.25,1.5-2.11,2.75-4.39,4.14-6.89,0,0,0-.29-.03-.27M122.07,106.44l-.08-.06s.09.13.14.5c.15.48.29.96.55,1.84,5.31,12.73,22.34,21.95,30.04,16.05-9.54,1.33-17.19-1.95-23.35-8.95-2.23-2.53-4.34-5.15-6.64-8.05-.21-.42-.42-.84-.65-1.33M134.82,86c-.12-.05-.24-.1-.37-.16.12.12.25.24.41.57.12.2.23.4.35.6.08-.05.16-.11.24-.16-.19-.24-.38-.48-.63-.86M208.98,56.94l1.33-1.18c-.15-.13-.3-.26-.45-.39-.39.57-.78,1.15-1.23,1.73l-.06.07s.12-.08.41-.24M188.81,34.4c3.54-.98,7.03-2.21,10.62-2.89,5.94-1.12,11.94-1.89,17.92-2.81-10.2-.83-19.93.76-29.08,5.74l-.06.1s.14-.09.6-.13M238.52,61.85c-.84.65-1.72,1.24-2.5,1.95-8.62,7.87-18.28,13.54-30.25,14.36-.62.04-1.23.33-1.84.51,6.03.83,11.74-.12,17.17-2.69,7.05-3.35,13.52-7.44,17.9-14.22,0,0-.12-.06-.48.1M262.81,44.34h.09s-.15-.03-.49-.3c-1.2-.3-2.39-.79-3.6-.87-8.43-.54-15.43,2.96-21.8,8.03-9.85,7.84-20.16,14.75-32.82,17.21-3.06.6-6.12,1.26-9.17,1.89.8.57,1.54.72,2.27.64,13.67-1.5,26.23-5.75,36.71-15.04,8.21-7.29,17.29-12.41,28.81-11.57M444.29,250.23c.74-1.66-.35-1.84-1.53-1.81-5.23.14-10.45.32-15.68.47-2.01.06-2.88,1.31-2.64,3.05.48,3.53,1.13,7.04,1.92,10.51.61,2.7,2.21,4.64,5.05,5.47,2.65.78,4.12,2.85,3.83,5.49-.29,2.6-.64,5.61-2.12,7.57-3.65,4.86-7.9,9.28-12.03,13.76-4.46,4.84-9.04,9.58-13.6,14.32-1.59,1.65-1.69,2.81.61,3.93,1.9.92,3.7,2.12,5.42,3.37,2.11,1.53,3.58,1.21,5.04-.96,3.61-5.39,7.39-10.67,11.07-16.02,7.28-10.6,12.59-21.81,11.12-35.2-.54-4.91,1.15-9.35,3.56-13.98M182.75,385.51c-3.48.14-6.97.15-10.43.51-.85.09-2.36,1.47-2.24,1.91.3,1.15,1.12,2.53,2.13,3.04,1.1.55,2.64.3,3.99.27,3.19-.08,6.38-.22,9.57-.38,6.19-.31,12.37-.63,18.56-.99,13.91-.82,27.82-1.7,41.73-2.49,8.31-.47,16.64-.65,24.94-1.33,3.45-.28,6.83-1.51,10.24-2.31,0-.4,0-.8,0-1.2-1.61-.39-3.21-1.1-4.82-1.11-9.1-.04-18.21-.22-27.29.24-21.94,1.11-43.87,2.54-66.37,3.85M130.37,258.95c-5.2-8.69-6.24-9.98-8.75-10.69.24.64.37,1.2.64,1.67,4.88,8.43,8.75,17.36,11.01,26.77,3.97,16.53,7.49,33.18,10.79,49.85,1.35,6.84,4.8,12.39,8.72,18.82,0-2.34.19-3.8-.03-5.19-1.83-11.65-3.37-23.36-5.72-34.9-3.27-16.07-7.9-31.74-16.66-46.33M118.65,251.49c-.42-.53-.73-1.26-1.27-1.56-1.09-.61-2.31-.99-3.48-1.47-.02,1.12-.3,2.32,0,3.34,3.1,10.57,6.5,21.06,9.41,31.68,3.46,12.63,7.45,25.01,13.95,36.45.47.82,1.12,1.53,2.19,2.96,0-1.44.08-1.93-.01-2.38-2.37-11.93-4.42-23.95-7.24-35.77-2.76-11.58-6.68-22.83-13.55-33.26M436.91,233.18c-2.3.26-4.99-.82-6.69,1.63-1.21,1.73-2.36,3.54-3.24,5.45-1.19,2.58-.68,3.42,2.13,3.45,5.69.05,11.39.07,17.07-.22,1.42-.07,3.03-1.12,4.08-2.19,1.4-1.42,2.43-3.23,3.45-4.98,1.43-2.43,1.08-3.04-1.76-3.09-4.82-.08-9.65-.04-15.04-.06M101.91,234.77c-.7.6-1.4,1.19-2.78,2.38,4.94,2.13,9.1,4.57,13.59,5.66,4.19,1.01,8.52-.3,11.83-3.44,3-2.86,2.77-6.15-.51-8.55-1.47-1.08-3.12-1.95-4.78-2.72-3.61-1.7-6.31-1.1-9.18,1.66-1.17,1.12-1.21,2.05-.17,3.21,2.05,2.27,4.53,3.58,7.63,3.64.95.02,1.89.21,2.84.33.05.29.09.57.14.86-.79.38-1.55,1-2.37,1.11-4.36.61-8.39-.18-11.28-3.79-1.51-1.88-2.88-1.99-4.96-.34M221.73,36.11c4.31-1.96,8.62-3.91,12.93-5.87-3.92.57-7.79,1.45-11.34,3.04-11.29,5.06-20.47,13.11-29.39,21.46-6.41,6.01-13.42,11.06-21.68,14.24-.46.18-.87.49-1.3.74,1.67.09,3.17-.2,4.6-.72,6.92-2.51,12.95-6.47,18.38-11.39,8.61-7.79,17.23-15.57,27.81-21.51M189.77,80.91h3.5c-.01-.27-.02-.55-.03-.82-7.93-1.31-15.92-.94-23.92-.65-13.69.5-25.33-3.64-33.47-15.34-.54-.78-1.2-1.49-1.81-2.23-.23.19-.46.38-.7.57,1.86,3.89,4.25,7.38,7.67,10.18,7.03,5.76,15.06,8.51,24.17,8.36,8.03-.13,16.06-.07,24.59-.07M373.67,368.83c-1.91,2.43-3.87,4.83-5.69,7.33-.38.53-.21,1.46-.29,2.2.81-.15,1.74-.1,2.38-.51.69-.44,1.11-1.32,1.64-2,5.38-6.83,10.76-13.67,16.16-20.5,1.33-1.69,2.72-3.34,4.09-5-3.67.14-6.1,2.19-8.04,4.63-3.49,4.38-6.7,8.99-10.25,13.85M227.17,399.85c5.07-.92,10.15-1.84,15.47-2.8-1.04-2.86-1.7-5.17-4.76-4.94-3.66.28-7.32.61-10.96,1.05-.73.09-2.02.94-1.96,1.19.43,1.85,1.14,3.63,2.2,5.49M253.35,33.49c2.22.15,4.45.3,6.67.44-.32-.77-.76-1.28-1.22-1.29-3.83-.06-7.78-.64-11.48.08-13.6,2.65-24.08,10.95-34.22,19.74-.39.34-.6.88-.89,1.33.16.19.33.39.49.58,2.15-1.5,4.38-2.9,6.44-4.52,10.05-7.9,20.52-14.89,34.2-16.36M181.16,405.03c3.08-1.72,3.04-4.9,3.42-7.78.06-.43-1.25-1.47-1.95-1.49-2.59-.08-5.2.06-7.78.33-.6.06-1.54.93-1.59,1.49-.35,4.49,3.04,7.86,7.89,7.46M159.11,35.68c-9.03,6.21-13.34,10.63-13.75,14.89,9.84-12.75,23.54-18.11,37.32-23.4-8.53.65-16.05,3.98-23.57,8.51M160.91,92.46c-6.77-.97-12.52-4.37-18.22-7.88,8.49,11.61,35.49,12.79,48.47,5.92-9.82,2.29-19.7,3.63-30.25,1.96M204.86,403.02c4.09-.26,6.44-3.71,4.94-7.45-.24-.59-1.24-1.15-1.96-1.24-4.41-.59-6.46,1.13-7.68,6.12-.42,1.71-.03,2.62,1.86,2.59.77-.02,1.54,0,2.83-.02M191.57,404.21c4.04-.32,5.14-1.6,5.81-6.4.29-2.1-.53-2.83-2.52-2.79-4.87.1-7.55,3.31-7.47,9.21,1.23,0,2.46,0,4.18-.02M127.98,93.9c-1.81-3.87-3.62-7.73-5.5-11.75.78,12.23,12.56,28.06,25.33,26.79-8.69-2.57-15.13-7.36-19.83-15.05M159.14,103.64c-.84-.14-1.68-.29-2.52-.43,12.99,6.54,34.46,1.95,40.06-5.55-11.57,7.1-24.01,8.65-37.54,5.98M218.12,393.68c-4.22.12-5.15,1.02-4.65,5.22.12,1.03,1.36,2.73,2.07,2.72,2.15-.03,4.9.68,6.16-1.89.91-1.85-.97-5.11-3.58-6.05M139.33,136.68c-9.71-2.9-15.6-10.02-20.22-18.57,1.6,12.59,20.22,24.57,29.58,19.59-2.83-.29-5.87-.6-9.36-1.03M176.51,54.5c-6.8,1.49-13.63,2.88-20.4,4.52-2.53.62-4.92,1.83-7.37,2.78.13.36.25.73.38,1.09,9.62-4.18,20.69-3.05,29.9-8.87-.7.12-1.4.25-2.51.48M257.09,390.81c-3.27.18-6.54.35-9.81.56-1.21.08-2.77-.12-2.47,1.88.26,1.69,1.01,3.02,3.07,2.49,2.89-.74,5.77-1.54,8.64-2.37,1.3-.38,2.56-.92,3.85-1.38-.04-.28-.08-.56-.12-.83-.89-.12-1.77-.23-3.15-.34M294.35,376.54c-.81-1.79-1.62-3.58-2.65-5.85-2.7,2.91-4.99,5.33-7.18,7.82-.27.3-.26,1.17-.01,1.52.26.36,1.08.7,1.45.55,2.8-1.15,5.55-2.42,8.4-4.03M131.35,144.05c-3.18-2.9-6.36-5.79-9.75-8.88,6.13,12.76,20.52,17.47,30.52,13.07-2.79,0-6.49.51-9.96-.14-3.6-.68-6.99-2.5-10.82-4.05M402.48,303.51c-3.1,1.93-6.21,3.85-9.84,6.11,7.72.64,13.17-2.86,14.76-9.18-1.67,1.03-3.12,1.94-4.92,3.07M421.94,280.45c-.79.64-1.58,1.27-2.63,2.12,7.53-.04,13.35-5.14,10.89-9.86-2.71,2.55-5.33,5.02-8.26,7.74M113.6,81.98c.69-.09,1.38-.18,2.06-.26-7.11-2.06-11.98-6.49-15.12-13.03.29,6.58,4.91,11.26,13.06,13.3M115.19,53.13c-.69-3.17-1.38-6.35-2.08-9.55-3.03,6.17,1.56,16.55,6.96,16.34-1.51-2.07-3.1-4.23-4.88-6.79M103.69,88.01c-2.36-2.18-4.72-4.37-7.17-6.63.81,6.12,9.69,12.1,15.71,10.81-2.69-1.29-5.44-2.61-8.53-4.18M115.81,70.73c-6.04-3.6-9.39-9.03-10.51-15.98-1.32,4.82,1.84,12.3,6.22,14.94,1.23.74,2.82.87,4.28,1.04M127.47,72.4c2.97,9.03,3.35,9.77,5.75,11-2.05-5.05-4.06-9.98-6.06-14.91-.29.11-.58.23-.87.34.34,1.05.68,2.11,1.17,3.58M128.68,51.66c-2.7-3.36-5.8-6.54-4.76-11.58-2.99,3.88-.31,10.13,4.76,11.58M281.16,57.43c-2.06-4.87-2.72-5.73-5.37-6.5,1.94,3.05,3.69,5.82,5.92,9.33-.24-1.39-.34-1.93-.56-2.83M104.47,101.08c4.14,1.67,6.58,1.77,8.23.44-2.96-.54-6.02-1.1-9.57-1.76.58.63.81.88,1.34,1.32M177.89,118.57c-.77-1.65-1.54-3.31-2.31-4.96-.25.13-.5.26-.74.39.34,3.1,1.09,4.32,3.06,4.57M152.42,157.87c.48-.3.96-.6,1.44-.9-.08-.16-.16-.32-.24-.48-2.24.58-4.49,1.17-6.73,1.75l.18.74c1.66-.33,3.31-.66,5.35-1.12M274.34,49.56h.11s-.1-.04-.11,0M181.6,53.27l.07.1s-.02-.12-.07-.1M156.9,145.75s.03-.03,0,0M155.5,155.37s-.03-.03,0,0M193.55,89.92s.03,0,0,0M118.31,116.1s-.02,0,0,0M143.88,51.59s0-.03,0,0M143.28,52.74s.03,0,0,0M146.79,63.8s0-.03,0,0M99.68,66.7s.02,0,0,0M140.37,82.4s.03,0,0,0M140.97,83.52s.01.03,0,0M101.43,99.25s.03,0,0,0M154.93,146.93s-.02-.04,0,0M288.7,282.35l-.11-.07s.01.13.11.07M409.04,299.8l-.13-.07s.02.15.13.07Z"/>
  <path class="st4" d="M153.83,23.96c-.5.76-1.11,1.67-1.95,2.24q-9.02,6.23-14.09,14.83l-.74-.14c.51-1.77.72-3.69,1.58-5.27,2.32-4.3,6.04-7.16,10.37-9.3,1.1-.54,2.07-1.34,3.19-2.19.54-.17.97-.17,1.63-.17Z"/>
  <path class="st4" d="M221.55,36.22c-10.4,5.83-19.02,13.61-27.62,21.4-5.43,4.91-11.46,8.88-18.38,11.39-1.42.52-2.93.81-4.6.72.43-.25.84-.57,1.3-.74,8.26-3.18,15.26-8.23,21.68-14.24,8.92-8.35,18.1-16.4,29.39-21.46,3.55-1.59,7.42-2.47,11.34-3.04-4.31,1.96-8.62,3.91-13.12,5.97Z"/>
  <path class="st4" d="M262.76,44.3c-11.47-.79-20.55,4.33-28.77,11.61-10.48,9.3-23.04,13.54-36.71,15.04-.72.08-1.47-.08-2.27-.64,3.06-.63,6.11-1.29,9.17-1.89,12.66-2.47,22.97-9.38,32.82-17.21,6.37-5.07,13.37-8.57,21.8-8.03,1.21.08,2.4.57,3.78,1,.17.13.18.12.18.12Z"/>
  <path class="st4" d="M189.51,80.91c-8.28.01-16.31-.05-24.34.08-9.1.15-17.13-2.59-24.17-8.36-3.42-2.8-5.82-6.29-7.67-10.18.23-.19.46-.38.7-.57.6.74,1.26,1.45,1.81,2.23,8.14,11.7,19.78,15.83,33.47,15.34,8-.29,15.99-.66,23.92.65.01.27.02.55.03.82-1.17,0-2.33,0-3.75,0Z"/>
  <path class="st4" d="M253.1,33.53c-13.43,1.43-23.9,8.42-33.95,16.32-2.06,1.62-4.29,3.02-6.44,4.52-.16-.19-.33-.39-.49-.58.29-.45.5-1,.89-1.33,10.14-8.78,20.63-17.09,34.22-19.74,3.69-.72,7.65-.14,11.48-.08.45,0,.89.52,1.22,1.29-2.22-.15-4.45-.3-6.92-.4Z"/>
  <path class="st4" d="M159.28,35.57c7.35-4.42,14.86-7.75,23.4-8.4-13.78,5.28-27.49,10.64-37.32,23.4.41-4.25,4.72-8.67,13.93-15Z"/>
  <path class="st4" d="M161.16,92.5c10.3,1.63,20.18.29,30-2-12.98,6.87-39.99,5.69-48.47-5.92,5.7,3.51,11.46,6.91,18.47,7.92Z"/>
  <path class="st4" d="M128.1,94.07c4.59,7.51,11.02,12.3,19.71,14.87-12.77,1.26-24.55-14.56-25.33-26.79,1.88,4.02,3.69,7.88,5.62,11.92Z"/>
  <path class="st4" d="M159.36,103.69c13.31,2.63,25.74,1.07,37.32-6.02-5.6,7.49-27.07,12.09-40.06,5.55.84.14,1.68.29,2.74.48Z"/>
  <path class="st4" d="M238.99,61.8c-4.37,6.74-10.84,10.83-17.89,14.18-5.42,2.57-11.14,3.52-17.17,2.69.61-.17,1.22-.46,1.84-.51,11.97-.82,21.63-6.49,30.25-14.36.78-.71,1.66-1.31,2.7-2.01.21-.05.26,0,.26,0Z"/>
  <path class="st4" d="M139.55,136.74c3.26.37,6.3.68,9.13.97-9.35,4.98-27.98-7.01-29.58-19.59,4.62,8.54,10.51,15.67,20.45,18.63Z"/>
  <path class="st4" d="M176.71,54.44c.9-.18,1.61-.3,2.31-.43-9.21,5.82-20.27,4.69-29.9,8.87-.13-.36-.25-.73-.38-1.09,2.45-.94,4.84-2.16,7.37-2.78,6.77-1.65,13.59-3.03,20.6-4.58Z"/>
  <path class="st4" d="M122.85,108.09c2.17,2.58,4.28,5.2,6.51,7.73,6.17,6.99,13.81,10.28,23.35,8.95-7.7,5.9-24.72-3.32-30.02-16.31.02-.26.16-.37.16-.37Z"/>
  <path class="st4" d="M131.52,144.16c3.65,1.44,7.04,3.25,10.64,3.93,3.48.66,7.17.14,9.96.14-10,4.4-24.39-.32-30.52-13.07,3.39,3.09,6.57,5.98,9.92,9Z"/>
  <path class="st4" d="M113.38,81.96c-7.94-2-12.56-6.69-12.84-13.27,3.14,6.54,8.01,10.97,15.12,13.03-.69.09-1.38.18-2.28.24Z"/>
  <path class="st4" d="M188.34,34.41c9.09-4.96,18.82-6.55,29.02-5.72-5.98.92-11.98,1.69-17.92,2.81-3.59.68-7.09,1.91-10.86,2.91-.23.01-.24,0-.24,0Z"/>
  <path class="st4" d="M115.28,53.33c1.68,2.36,3.27,4.53,4.78,6.59-5.4.21-9.99-10.18-6.96-16.34.7,3.2,1.39,6.38,2.18,9.75Z"/>
  <path class="st4" d="M103.87,88.13c2.92,1.44,5.67,2.76,8.36,4.06-6.02,1.29-14.89-4.69-15.71-10.81,2.45,2.27,4.81,4.45,7.35,6.75Z"/>
  <path class="st4" d="M115.79,70.85c-1.44-.29-3.04-.42-4.26-1.16-4.39-2.64-7.54-10.12-6.22-14.94,1.11,6.95,4.46,12.37,10.49,16.09Z"/>
  <path class="st2" d="M117.53,415.37c1.82-.53,3.96-1.38,5.02,1.02.84,1.9,1.8,4.05-.78,5.85-1.52-2.15-2.85-4.41-4.24-6.87Z"/>
  <path class="st4" d="M127.4,72.19c-.41-1.26-.76-2.32-1.1-3.37.29-.11.58-.23.87-.34,2,4.93,4,9.86,6.06,14.91-2.41-1.22-2.79-1.96-5.83-11.2Z"/>
  <path class="st4" d="M128.6,51.74c-4.99-1.52-7.67-7.77-4.68-11.65-1.03,5.04,2.07,8.22,4.68,11.65Z"/>
  <path class="st7" d="M70.93,282.37c.33,3.36.6,6.99.95,10.62.43,4.58.93,9.16,1.36,13.93-2.07-7.84-2.68-16.02-2.3-24.55Z"/>
  <path class="st4" d="M281.22,57.61c.16.72.25,1.26.49,2.65-2.23-3.51-3.99-6.28-5.92-9.33,2.65.77,3.31,1.63,5.43,6.68Z"/>
  <path class="st7" d="M260.41,303.85c-.21-2.02-.58-4.31-.57-6.59.04-6.25.24-12.5.46-18.97.09,8.28.11,16.79.11,25.56Z"/>
  <path class="st4" d="M104.32,100.99c-.38-.35-.62-.6-1.19-1.23,3.55.65,6.61,1.21,9.57,1.76-1.65,1.33-4.09,1.23-8.38-.53Z"/>
  <path class="st7" d="M406,349.53c-1.66-.49-3.09-.95-4.68-1.53,2.29.32,4.73.82,7.19,1.17,1.98.28,3.99.37,6.25.53-2.69,2.09-5.6.13-8.76-.16Z"/>
  <path class="st2" d="M263.07,266.62c.33,5.57.69,11.42.99,17.49-.36-5.59-.66-11.4-.99-17.49Z"/>
  <path class="st9" d="M222.63,367.21c-.58-5.56-1.14-11.38-1.69-17.46,2.18,5.41,1.81,11.31,1.69,17.46Z"/>
  <path class="st5" d="M177.86,118.7c-1.93-.38-2.68-1.6-3.02-4.7.25-.13.5-.26.74-.39.77,1.65,1.54,3.31,2.28,5.1Z"/>
  <path class="st7" d="M74.22,265.9c-.81,4.39-1.78,8.92-2.87,13.65.83-4.37,1.77-8.94,2.87-13.65Z"/>
  <path class="st7" d="M84.16,360.45c-.14,3.33-.26,6.5-.47,9.66-.11,1.71-.37,3.42-.66,5.35-.1-5.25-.1-10.72-.1-16.2.23-.03.45-.06.68-.1.18.37.35.74.55,1.28Z"/>
  <path class="st4" d="M152.23,157.94c-1.85.39-3.5.73-5.16,1.06l-.18-.74c2.24-.58,4.49-1.17,6.73-1.75.08.16.16.32.24.48-.48.3-.96.6-1.63.96Z"/>
  <path class="st2" d="M231.31,361.92c-.2-4.16-.38-8.59-.57-13.28.14-.73.28-1.19.49-1.82.08,4.83.09,9.83.08,15.1Z"/>
  <path class="st7" d="M112.21,424.22c-.06,4.06-.15,8.39-.38,12.88.03-4.09.19-8.35.38-12.88Z"/>
  <path class="st2" d="M96.44,434.62c.04-3.05.1-6.37.27-9.86-.01,3.09-.13,6.34-.27,9.86Z"/>
  <path class="st9" d="M386.82,322.8c2.32-.46,4.87-.92,7.64-1.32-2.33.48-4.86.9-7.64,1.32Z"/>
  <path class="st7" d="M267.2,170.86c.1,2.56.22,5.34.26,8.37-.13-2.55-.19-5.35-.26-8.37Z"/>
  <path class="st2" d="M80.26,409.1c-.12,2.11-.27,4.46-.5,7.01.1-2.12.29-4.44.5-7.01Z"/>
  <path class="st7" d="M262.24,325.42c-.14,2.11-.31,4.47-.57,7.03.12-2.13.33-4.46.57-7.03Z"/>
  <path class="st2" d="M136.77,207.6c-.31-.44-.48-.94-.64-1.44.5.1.99.2,1.61.42-.2.4-.51.68-.97,1.03Z"/>
  <path class="st2" d="M385.78,339.01c-1.35.27-2.95.54-4.75.74,1.37-.29,2.94-.52,4.75-.74Z"/>
  <path class="st2" d="M219.02,261.35c1.91.01,3.98.2,6.31.39-1.88-.07-4.01-.14-6.31-.39Z"/>
  <path class="st7" d="M287.78,438.73c.1,1.19.18,2.64.13,4.22-.13-1.23-.14-2.6-.13-4.22Z"/>
  <path class="st2" d="M264.11,299.24c.06.81.08,1.86-.02,3.03-.09-.85-.05-1.82.02-3.03Z"/>
  <path class="st7" d="M111.65,441.06c-.08,1.38-.18,3-.42,4.77.04-1.41.22-2.97.42-4.77Z"/>
  <path class="st9" d="M386.36,315.51c-.98.31-2.2.67-3.6.97,1-.35,2.18-.63,3.6-.97Z"/>
  <path class="st3" d="M208.7,57.1c.39-.57.78-1.15,1.16-1.72.15.13.3.26.45.39-.44.39-.89.78-1.48,1.25-.14.08-.14.08-.14.08Z"/>
  <path class="st5" d="M276.71,67.93c-.24-1-.49-2.22-.68-3.63.27,1.01.47,2.2.68,3.63Z"/>
  <path class="st2" d="M79.08,418.96c0,1.18,0,2.61-.15,4.14-.04-1.23.04-2.56.15-4.14Z"/>
  <path class="st2" d="M242.56,350.17c.19-1.14.51-2.48.94-3.99-.19,1.14-.51,2.47-.94,3.99Z"/>
  <path class="st2" d="M76.71,388.73c-.06-1.33-.09-2.92-.05-4.72.08,1.35.07,2.91.05,4.72Z"/>
  <path class="st7" d="M155.8,178.34c-.06-1-.06-2.21-.03-3.64.15-.2.28-.19.59-.16-.04,1.21-.27,2.4-.55,3.8Z"/>
  <path class="st2" d="M251.89,312.22c-.31-.32-.54-.78-.76-1.24.32,0,.63,0,1.05.07,0,.39-.1.71-.29,1.17Z"/>
  <path class="st2" d="M212.42,260c.84.09,1.89.23,3.1.48-.86-.07-1.87-.25-3.1-.48Z"/>
  <path class="st7" d="M113.47,420.81c-.32.03-.71-.11-1.3-.31-.25-.48-.3-.9-.35-1.31.16-.07.32-.15.48-.22.37.56.73,1.11,1.17,1.84Z"/>
  <path class="st2" d="M244.32,343.56c.17-.92.47-2,.9-3.23-.17.92-.47,2-.9,3.23Z"/>
  <path class="st2" d="M277.91,278.8c.19.49.38,1.19.51,2.06-.21-.51-.36-1.18-.51-2.06Z"/>
  <path class="st7" d="M73.44,309.05c.28.69.6,1.58.93,2.69-.29-.68-.59-1.59-.93-2.69Z"/>
  <path class="st2" d="M249.37,323.67c.08-.67.2-1.53.46-2.53-.05.69-.23,1.51-.46,2.53Z"/>
  <path class="st2" d="M290.18,292.81c-.21-.15-.49-.46-.68-.88.26.17.44.44.68.88Z"/>
  <path class="st2" d="M166.29,155.06c.05.96.08,2.17.02,3.57-.07-.98-.06-2.15-.02-3.57Z"/>
  <path class="st2" d="M372.47,310.03c-.32.46-.8,1-1.45,1.61.31-.46.8-1,1.45-1.61Z"/>
  <path class="st7" d="M258.23,445.65c.1-.27.26-.75.54-1.29-.08.32-.28.7-.54,1.29Z"/>
  <path class="st2" d="M241.76,190.04c-.37,0-.92-.08-1.57-.28.4,0,.9.09,1.57.28Z"/>
  <path class="st7" d="M213.92,327.25c-.32-.55-.71-1.29-1.12-2.26.33.54.7,1.3,1.12,2.26Z"/>
  <path class="st6" d="M134.89,86.14c.19.24.38.48.56.72-.08.05-.16.11-.24.16-.12-.2-.23-.4-.35-.73,0-.12.03-.16.03-.16Z"/>
  <path class="st9" d="M284.23,84.56c.06.62.14,1.49.15,2.53-.09-.64-.11-1.46-.15-2.53Z"/>
  <path class="st2" d="M230.87,344.28c-.09-.53-.16-1.32-.15-2.22.11.58.14,1.27.15,2.22Z"/>
  <path class="st2" d="M224.36,349.76c.07.42.15,1.07.18,1.85-.09-.45-.13-1.04-.18-1.85Z"/>
  <path class="st7" d="M261.19,442.47c.31-.29.79-.64,1.45-1.05-.31.29-.8.64-1.45,1.05Z"/>
  <path class="st7" d="M259.46,443.84c.3-.32.76-.75,1.4-1.25-.3.33-.77.74-1.4,1.25Z"/>
  <path class="st9" d="M399.69,321.55c.6.02,1.44.06,2.44.2-.63.01-1.42-.08-2.44-.2Z"/>
  <path class="st7" d="M260.45,337.58c-.02.61-.07,1.47-.23,2.48,0-.64.1-1.44.23-2.48Z"/>
  <path class="st2" d="M247.92,329.6c-.32.06-.59,0-.87-.07.23-.1.46-.2.82-.32.13-.02.09.25.04.38Z"/>
  <path class="st2" d="M248.4,327.34c0-.37.1-.9.29-1.55,0,.39-.1.88-.29,1.55Z"/>
  <path class="st2" d="M258.84,160.71c.67.1,1.53.32,2.58.65-.67-.1-1.53-.32-2.58-.65Z"/>
  <path class="st7" d="M364.69,371.59c.13-.29.43-.62.86-1.05-.14.27-.41.64-.86,1.05Z"/>
  <path class="st6" d="M134.84,86.18c-.14-.1-.26-.22-.39-.34.12.05.24.1.4.23.03.07,0,.1-.01.12Z"/>
  <path class="st2" d="M246.63,334.89c.02-.21.13-.57.32-1-.02.23-.13.54-.32,1Z"/>
  <path class="st9" d="M381.14,316.77c-.43.08-1.08.21-1.89.28.45-.11,1.06-.18,1.89-.28Z"/>
  <path class="st2" d="M243.72,345.89c.02-.5.16-1.17.39-2.02-.04.49-.15,1.17-.39,2.02Z"/>
  <path class="st2" d="M232.48,345.07c.09.42.15,1.07.17,1.87-.1-.44-.15-1.04-.17-1.87Z"/>
  <path class="st2" d="M250.75,316.95c0-.22.09-.6.26-1.06,0,.25-.1.58-.26,1.06Z"/>
  <path class="st2" d="M99.48,437.49c.06.14.11.46.09.85-.08-.18-.09-.42-.09-.85Z"/>
  <path class="st9" d="M284.3,90.54c.02.47.03,1.19-.02,2.11-.03-.49-.02-1.17.02-2.11Z"/>
  <path class="st7" d="M165,348.15c-.15-.15-.3-.47-.45-.9.15.17.3.45.45.9Z"/>
  <path class="st7" d="M357.68,378.56c.14-.27.44-.6.89-1.03-.15.26-.43.61-.89,1.03Z"/>
  <path class="st6" d="M274.34,49.53s.1,0,.1,0c0,0-.11.01-.1,0Z"/>
  <path class="st2" d="M263.41,313.09c.05.14.08.47.03.87-.07-.18-.06-.43-.03-.87Z"/>
  <path class="st2" d="M264.4,291.32c.05.51.03,1.27-.08,2.21-.06-.54-.03-1.24.08-2.21Z"/>
  <path class="st7" d="M267.49,180.63c-.14.38-.31.52-.59.77,0-.47.12-1.04.36-1.79.16.14.18.46.23,1.02Z"/>
  <path class="st2" d="M185.65,366.17c-.18-.33-.43-.88-.73-1.66.18.33.42.89.73,1.66Z"/>
  <path class="st7" d="M261.06,334.67c-.01.26-.05.74-.16,1.35,0-.29.06-.71.16-1.35Z"/>
  <path class="st9" d="M262.89,364.5c.03-.33.17-.81.39-1.46-.04.32-.16.81-.39,1.46Z"/>
  <path class="st9" d="M264.06,361.59c.02-.33.16-.81.39-1.46-.03.32-.15.82-.39,1.46Z"/>
  <path class="st2" d="M231.9,343.03c.18.32.35.88.56,1.64-.16-.33-.37-.87-.56-1.64Z"/>
  <path class="st2" d="M215.8,260.72c.36.02.87.18,1.58.41-.35-.04-.89-.16-1.58-.41Z"/>
  <path class="st7" d="M74.83,263.89c0,.39-.15.95-.37,1.71.02-.38.13-.95.37-1.71Z"/>
  <path class="st9" d="M255.65,359.29c-.03.41-.18,1.04-.4,1.89.05-.41.16-1.04.4-1.89Z"/>
  <path class="st2" d="M241.4,353.71c.01-.38.16-.94.38-1.7-.03.37-.14.95-.38,1.7Z"/>
  <path class="st6" d="M181.62,53.27s.04.11.04.11c0,0-.07-.1-.04-.11Z"/>
  <path class="st2" d="M209.14,258.97c.38.05.94.25,1.7.55-.38-.06-.95-.24-1.7-.55Z"/>
  <path class="st9" d="M385.02,323.37c.28-.17.75-.34,1.4-.55-.28.16-.74.36-1.4.55Z"/>
  <path class="st9" d="M396.72,321.56c.25-.04.7-.06,1.28-.05-.27.05-.68.05-1.28.05Z"/>
  <path class="st2" d="M207.09,258.39c.38.01.93.17,1.69.39-.37-.04-.95-.14-1.69-.39Z"/>
  <path class="st6" d="M122.64,108.26c-.22-.42-.37-.9-.54-1.57-.02-.19-.02-.19-.02-.19.21.42.42.84.7,1.43.07.16-.07.27-.15.33Z"/>
  <path class="st6" d="M156.92,145.73s-.01.02,0,0Z"/>
  <path class="st2" d="M170.33,367.37c-.13-.13-.28-.43-.51-.89.11.14.3.43.51.89Z"/>
  <path class="st6" d="M188.35,34.43s-.14.1-.14.1c0,0,.06-.1.09-.1s.04,0,.05,0Z"/>
  <path class="st2" d="M174.98,366.52c.14.12.29.42.52.88-.12-.13-.31-.42-.52-.88Z"/>
  <path class="st2" d="M170.91,368.52c-.13-.13-.28-.43-.5-.89.11.14.29.42.5.89Z"/>
  <path class="st2" d="M176.52,368.83c.12.16.35.49.68,1-.12-.16-.35-.49-.68-1Z"/>
  <path class="st2" d="M260.43,136.49c-.01-.13,0-.49.04-.98.01.16,0,.46-.04.98Z"/>
  <path class="st7" d="M266.13,182.79c-.04.21-.2.58-.42,1.15.06-.2.18-.59.42-1.15Z"/>
  <path class="st6" d="M262.75,44.31s.14.04.14.04c0,0-.09-.01-.11-.03-.02-.02-.03-.01-.03,0Z"/>
  <path class="st2" d="M257.37,160.11c.21.02.59.17,1.16.4-.21-.04-.6-.15-1.16-.4Z"/>
  <path class="st3" d="M208.7,57.1s-.12.08-.12.08c0,0,.06-.07.09-.08.03,0,.03,0,.03,0Z"/>
  <path class="st7" d="M187.08,150.29c.13.12.32.42.6.86-.12-.13-.33-.41-.6-.86Z"/>
  <path class="st9" d="M261.73,366.85c.02-.18.16-.49.39-.93-.03.17-.15.5-.39.93Z"/>
  <path class="st2" d="M169.75,366.21c-.13-.13-.28-.43-.51-.89.11.14.29.43.51.89Z"/>
  <path class="st9" d="M262.3,365.68c.03-.18.17-.48.4-.93-.04.17-.16.49-.4.93Z"/>
  <path class="st6" d="M155.49,155.36s.01.01,0,0Z"/>
  <path class="st7" d="M356.52,379.17c.12-.14.42-.3.87-.53-.13.12-.41.32-.87.53Z"/>
  <path class="st7" d="M223.32,179.88c.18.02.48.17.93.38-.17-.04-.49-.15-.93-.38Z"/>
  <path class="st9" d="M100.96,397.28c0-.07.13-.24.31-.34-.02.12-.11.19-.31.34Z"/>
  <path class="st6" d="M122.08,106.51s-.1-.13-.1-.13c0,0,.08.06.09.09,0,.03,0,.03,0,.04Z"/>
  <path class="st6" d="M193.56,89.92s-.01,0,0,0Z"/>
  <path class="st2" d="M171.85,411.76c-.16.12-.53.26-1.07.46.17-.1.52-.27,1.07-.46Z"/>
  <path class="st7" d="M375.97,378.64c0,.19-.16.49-.39.93.03-.18.14-.5.39-.93Z"/>
  <path class="st7" d="M363.46,373.3c.03-.18.17-.5.4-.97-.04.17-.16.5-.4.97Z"/>
  <path class="st7" d="M163.41,171.27c.02.11.02.4,0,.8-.02-.13-.02-.38,0-.8Z"/>
  <path class="st7" d="M125.01,439.99c-.14-.16-.3-.52-.52-1.07.12.17.32.52.52,1.07Z"/>
  <path class="st7" d="M266.7,181.59c-.03.18-.18.48-.41.94.04-.17.17-.49.41-.94Z"/>
  <path class="st7" d="M263.53,440.8c.14-.15.47-.3.97-.52-.15.13-.46.32-.97.52Z"/>
  <path class="st7" d="M377.14,376.89c-.01.19-.16.49-.39.95.03-.18.14-.51.39-.95Z"/>
  <path class="st7" d="M358.88,377.46c.14-.16.47-.32.97-.53-.14.14-.46.34-.97.53Z"/>
  <path class="st7" d="M301.47,303.16c.14.12.37.42.69.87-.14-.13-.38-.41-.69-.87Z"/>
  <path class="st7" d="M298.09,245.03c.13.13.33.42.62.87-.12-.13-.34-.42-.62-.87Z"/>
  <path class="st2" d="M161.96,291.56c.15.16.38.53.7,1.09-.15-.17-.39-.52-.7-1.09Z"/>
  <path class="st2" d="M162.74,293.15c.13.19.29.61.53,1.24-.12-.2-.31-.6-.53-1.24Z"/>
  <path class="st7" d="M310.48,286.56c-.05-.11-.09-.43-.11-.85.05.14.09.4.11.85Z"/>
  <path class="st7" d="M74.39,312.48c.03.11.06.42.08.84-.04-.14-.06-.39-.08-.84Z"/>
  <path class="st9" d="M383.85,323.89c.13-.12.42-.27.86-.48-.13.11-.41.28-.86.48Z"/>
  <path class="st7" d="M76.6,260.06c-.01.19-.16.49-.39.95.03-.18.14-.51.39-.95Z"/>
  <path class="st2" d="M226.86,261.13c.14-.11.44-.26.9-.49-.14.1-.44.28-.9.49Z"/>
  <path class="st7" d="M76.01,261.21c0,.2-.15.5-.38.96.03-.18.13-.52.38-.96Z"/>
  <path class="st2" d="M225.72,261.73c.13-.14.42-.29.88-.52-.13.12-.42.31-.88.52Z"/>
  <path class="st7" d="M75.44,262.4c-.03.19-.19.51-.43,1,.04-.18.17-.52.43-1Z"/>
  <path class="st2" d="M169.17,365.04c-.13-.13-.28-.43-.51-.88.11.13.3.42.51.88Z"/>
  <path class="st2" d="M223.74,347.23c.04.12.09.46.14.92-.05-.15-.09-.43-.14-.92Z"/>
  <path class="st2" d="M241.96,351.74c.02-.19.17-.49.39-.95-.04.18-.15.5-.39.95Z"/>
  <path class="st2" d="M378.62,338.09c.17-.14.54-.37,1.1-.7-.17.14-.54.37-1.1.7Z"/>
  <path class="st7" d="M304.46,350.74c0,.2-.16.51-.39.96.03-.18.14-.52.39-.96Z"/>
  <path class="st7" d="M305.02,349.57c0,.21-.13.51-.36.96.01-.19.11-.53.36-.96Z"/>
  <path class="st2" d="M238.79,189.54c-.12.06-.45.09-.91.09.15-.06.43-.09.91-.09Z"/>
  <path class="st9" d="M263.49,362.78c0-.19.15-.49.37-.94-.02.18-.13.51-.37.94Z"/>
  <path class="st2" d="M287.21,234.54c.18.09.5.3.98.64-.17-.09-.51-.3-.98-.64Z"/>
  <path class="st9" d="M255.05,361.59c0,.25-.16.69-.38,1.35.03-.24.13-.7.38-1.35Z"/>
  <path class="st7" d="M303.91,351.92c-.03.18-.19.5-.43.98.05-.18.18-.51.43-.98Z"/>
  <path class="st2" d="M171.44,369.15c-.07,0-.2-.14-.44-.39.06.01.21.13.44.39Z"/>
  <path class="st6" d="M118.3,116.1s.01,0,0,0Z"/>
  <path class="st7" d="M365.82,370.4c.02-.08.2-.21.52-.45-.03.06-.19.23-.52.45Z"/>
  <path class="st2" d="M177.77,370.58c.06.04.25.24.57.59-.06-.04-.25-.24-.57-.59Z"/>
  <path class="st2" d="M260.56,135.18c0-.07.12-.27.35-.62,0,.07-.11.28-.35.62Z"/>
  <path class="st9" d="M261.59,367.36s0-.14,0-.36c0-.07,0,.22,0,.36Z"/>
  <path class="st2" d="M228.02,260.52c.03-.07.22-.2.55-.44-.03.05-.21.21-.55.44Z"/>
  <path class="st3" d="M143.88,51.58s0,.01,0,0Z"/>
  <path class="st3" d="M143.29,52.74s-.01,0,0,0Z"/>
  <path class="st6" d="M238.91,61.72s.09.04.09.06c0,.02-.06-.03-.09-.06Z"/>
  <path class="st6" d="M146.79,63.78s0,.01,0,0Z"/>
  <path class="st6" d="M99.7,66.7s-.01,0,0,0Z"/>
  <path class="st2" d="M186.04,367.47s0-.16-.04-.39c0,.03.01.13.04.39Z"/>
  <path class="st6" d="M140.38,82.39s-.01,0,0,0Z"/>
  <path class="st6" d="M140.98,83.54s0-.02,0,0Z"/>
  <path class="st7" d="M77.17,259.38c0,.07-.13.23-.37.5,0-.06.12-.24.37-.5Z"/>
  <path class="st2" d="M175.6,367.66c.07.02.21.19.45.5-.06-.03-.22-.19-.45-.5Z"/>
  <path class="st2" d="M229.24,187.19c-.07,0-.26-.11-.59-.31.07,0,.27.09.59.31Z"/>
  <path class="st6" d="M137.78,90.22s-.02,0-.02,0,.02,0,.02,0Z"/>
  <path class="st6" d="M137.77,90.24s.02,0,.02,0c0-.01-.01,0-.02,0Z"/>
  <path class="st2" d="M186.52,368.52c-.06-.03-.19-.23-.42-.58.05.04.2.23.42.58Z"/>
  <path class="st6" d="M201.72,92.55s.03,0,.02,0c-.01,0-.02,0-.02,0Z"/>
  <path class="st6" d="M201.72,92.56s-.03,0-.01,0c.01,0,.01,0,.01,0Z"/>
  <path class="st6" d="M200.46,94.22s.16.08.11.07-.11-.07-.11-.07Z"/>
  <path class="st9" d="M284.13,93.54c0,.08-.13.28-.36.64,0-.07.12-.29.36-.64Z"/>
  <path class="st6" d="M200.57,94.32s-.11-.05-.11-.07.07.04.11.07Z"/>
  <path class="st9" d="M282.42,96.51c0,.06-.13.23-.33.52.02-.05.12-.23.33-.52Z"/>
  <path class="st6" d="M101.44,99.25s-.01,0,0,0Z"/>
  <path class="st2" d="M368.42,314.07c.01.09-.12.22-.36.45,0-.07.11-.23.36-.45Z"/>
  <path class="st9" d="M291.28,237.5c.08.02.2.21.43.54-.06-.03-.22-.2-.43-.54Z"/>
  <path class="st7" d="M367,308.79c.02-.09.22-.22.56-.46-.03.07-.21.24-.56.46Z"/>
  <path class="st7" d="M366.39,309.37c-.02-.09.11-.23.36-.46,0,.07-.11.24-.36.46Z"/>
  <path class="st7" d="M355.9,379.71c0-.08.13-.22.37-.46,0,.07-.12.23-.37.46Z"/>
  <path class="st7" d="M365.8,310.05c0-.07.13-.24.36-.54,0,.06-.12.25-.36.54Z"/>
  <path class="st2" d="M373.63,309.26c-.04.06-.24.25-.59.58.04-.06.23-.26.59-.58Z"/>
  <path class="st7" d="M259.69,446.62s-.13,0-.33-.01c-.07,0,.2,0,.33.01Z"/>
  <path class="st2" d="M370.73,311.76c-.02.07-.21.2-.53.44.03-.06.2-.21.53-.44Z"/>
  <path class="st2" d="M275.41,441.77c-.07,0-.2-.14-.41-.39.06.01.21.13.41.39Z"/>
  <path class="st2" d="M95.5,232.81c.03-.07.22-.27.57-.6-.03.06-.22.27-.57.6Z"/>
  <path class="st7" d="M262.89,441.34c0-.08.13-.22.37-.46,0,.07-.12.23-.37.46Z"/>
  <path class="st2" d="M93.76,233.77c.03-.07.23-.2.58-.44-.04.06-.22.22-.58.44Z"/>
  <path class="st2" d="M369.01,313.37c0,.07-.14.24-.37.55.01-.06.13-.25.37-.55Z"/>
  <path class="st9" d="M290.69,236.9c.08,0,.2.12.43.34-.11.07-.27-.03-.43-.34Z"/>
  <path class="st2" d="M95.99,438.42c-.05-.03-.06-.15-.06-.43.15-.01.19.16.06.43Z"/>
  <path class="st2" d="M93.15,234.37c-.01-.08.12-.22.36-.45,0,.07-.12.23-.36.45Z"/>
  <path class="st2" d="M90.24,237.44c0-.07.13-.26.37-.58-.01.06-.12.26-.37.58Z"/>
  <path class="st7" d="M287.9,425.83c-.01-.08.12-.27.36-.6,0,.07-.11.28-.36.6Z"/>
  <path class="st2" d="M372.59,316.21c-.08.14-.3.15-.42.15-.12,0-.13,0-.13,0,.17-.13.34-.25.64-.47.08,0,.04.1-.09.32Z"/>
  <path class="st2" d="M90.83,236.7c-.01-.09.12-.22.36-.45,0,.07-.11.23-.36.45Z"/>
  <path class="st9" d="M378.27,317.07c0,.06-.12.18-.34.38-.02-.08.08-.21.34-.38Z"/>
  <path class="st2" d="M92.56,235.15c0-.07.14-.27.37-.61-.01.06-.13.27-.37.61Z"/>
  <path class="st2" d="M91.43,236.1c.03-.07.22-.21.56-.44-.03.06-.21.22-.56.44Z"/>
  <path class="st7" d="M222.65,179.36c.12-.03.26.09.49.33-.09,0-.27-.09-.49-.33Z"/>
  <path class="st9" d="M382.66,324.44c.02-.07.19-.2.49-.43-.03.06-.18.21-.49.43Z"/>
  <path class="st7" d="M187.78,151.42c.09-.02.23.11.45.36-.07,0-.24-.1-.45-.36Z"/>
  <path class="st7" d="M299.41,246.79c.08.02.22.22.46.57-.07-.03-.23-.21-.46-.57Z"/>
  <path class="st9" d="M210.49,371.76s0,.11.01.28c0,.06-.01-.17-.01-.28Z"/>
  <path class="st7" d="M298.82,246.16c.09-.01.23.12.46.37-.07,0-.24-.11-.46-.37Z"/>
  <path class="st6" d="M154.92,146.92s0,.02,0,0Z"/>
  <path class="st7" d="M364.08,372.17c-.03-.11.1-.24.34-.46,0,.08-.09.25-.34.46Z"/>
  <path class="st9" d="M288.65,282.38c-.05.03-.06-.1-.06-.1,0,0,.11.07.06.1Z"/>
  <path class="st7" d="M377.73,376.11c0,.07-.14.26-.38.59.02-.06.13-.27.38-.59Z"/>
  <path class="st2" d="M237.73,189.48c-.09.02-.23-.1-.46-.33.07,0,.24.09.46.33Z"/>
  <path class="st8" d="M408.99,299.84c-.06.04-.08-.11-.08-.11,0,0,.13.07.08.11Z"/>
  <path class="st2" d="M88.54,238.44c.02-.08.22-.22.57-.45-.03.07-.21.23-.57.45Z"/>
  <path class="st7" d="M376.54,378.01c.02.09-.12.23-.36.47,0-.07.11-.24.36-.47Z"/>
  <path class="st9" d="M245.33,221.02s-.02,0-.02.01c0,.01.01,0,.02-.01Z"/>
  <path class="st2" d="M275.96,227.54c.07,0,.26.13.6.36-.06-.01-.27-.12-.6-.36Z"/>
  <path class="st1" d="M259.76,487.87c-3.8,4.88-7.67,9.71-11.31,14.71-.6.83-.66,2.74-.11,3.61,5.26,8.33,10.56,16.65,16.21,24.71,1.46,2.08,4.29,3.16,6.32,4.9,1.05.9,1.75,2.21,2.61,3.34-1.24.43-2.48,1.19-3.73,1.22-6.18.16-12.37.13-18.56.18-.58,0-1.2.22-1.73.07-1.23-.35-2.41-.87-3.62-1.31.72-.98,1.27-2.19,2.2-2.88,2.11-1.55,2.17-3.42,1-5.34-2.73-4.45-5.6-8.82-8.46-13.18-1.22-1.86-2.4-2.26-3.93-.07-2.72,3.88-5.72,7.56-8.51,11.39-2.71,3.72-2.47,4.87,1.04,7.93.57.5,1.2,1.52,1.05,2.09-.16.59-1.25,1.31-1.94,1.32-5.69.08-11.39.08-17.08-.07-.74-.02-1.78-.86-2.09-1.58-.22-.51.36-1.8.94-2.13,6.46-3.75,9.81-10.3,14.28-15.81,2.86-3.52,5.6-7.15,8.2-10.87.62-.89,1.05-2.71.57-3.47-5.49-8.65-11.17-17.18-16.83-25.73-.31-.47-.84-.78-1.59-1.4-3.11-1.26-5.89-2.29-8.72-3.55-.32-3.01,1.3-3.76,3.67-3.75,8.39.03,16.78.04,25.23.25-.43,1.39-.6,3.06-1.5,3.72-2.02,1.49-2.21,3.03-1.06,4.98,2.55,4.33,5.14,8.65,7.74,12.95.53.87,1.2,1.64,2.12,2.88,3.79-5.07,7.41-9.69,10.78-14.48,2.79-3.97,1.98-5.73-2.79-7.06.31-1.25.66-2.27,1.12-3.3.12,0,.35-.02.6,0,.91,0,1.57-.01,2.44-.01.79,0,1.37,0,2.21.01,1.3,0,2.34,0,3.64,0,2.17,0,4.08,0,6.21,0,.5,0,.79,0,1.31,0,1,0,1.77-.01,2.75.03,2.65.79,2.29,2.32,1.12,4.06-5.6,1.96-8.55,6.34-11.17,11.04,0,0,0,.03-.1.11-.25.22-.39.37-.54.51Z"/>
  <path class="st1" d="M307.53,472.11c4.45,0,8.9.02,13.88.03,1.95-.01,3.36-.03,5.03-.03,1.98.01,3.71,0,5.57.12.46.63.78,1.13,1.14,1.88.21,5.11.38,9.98.55,14.84-2.62,1.61-3.75,1.49-4.72-1.14-2.16-5.91-6.24-8.2-12.39-7.64-3.26.3-6.58.09-9.87.06-2.29-.02-3.37,1-3.34,3.34.06,4.94.06,9.88.02,14.81-.02,2.27.93,3.44,3.27,3.41,3.48-.05,6.97.03,10.45-.09,3.12-.11,5.84-1.03,7.65-3.94.48-.77,1.9-1.38,2.81-1.29.54.05,1.31,1.6,1.33,2.5.14,4.64.17,9.29.02,13.94-.03.96-.94,1.89-1.44,2.84-.91-.58-2.26-.95-2.64-1.78-1.68-3.64-4.56-4.72-8.27-4.61-3.19.1-6.39.08-9.58,0-2.61-.06-3.63,1.13-3.6,3.7.08,5.52.02,11.04.02,16.56,0,1.8.35,3.48,2.56,3.46,5.89-.06,11.8-.12,17.68-.46,3.65-.21,6.33-2.2,7.76-5.69.25-.62.54-1.36,1.04-1.72.95-.66,2.09-1.5,3.1-1.44.55.03,1.47,1.79,1.41,2.71-.22,3.46-.65,6.93-1.24,10.35-.47,2.7-2.39,3.8-5.06,3.78-11.69-.11-23.39-.21-35.08-.26-3.19-.01-6.38.28-9.57.19-.99-.03-1.96-.87-2.94-1.35.67-.85,1.18-2.12,2.05-2.47,4.38-1.75,5.62-4.98,5.56-9.45-.17-14.33-.09-28.66-.14-43.48-.46-5.38-3.79-7.26-8.04-8.4.2-1.07.4-1.92.73-2.82.28-.13.43-.24.82-.36,2.58-.05,4.89-.09,7.47-.11,2.38,0,4.5,0,6.85.01.69,0,1.14,0,1.83,0,1.01,0,1.79,0,2.83,0,1.66,0,3.06,0,4.45-.02Z"/>
  <path class="st1" d="M454.66,476.2c-.17-.49-.35-.96-.6-1.74-.06-.31-.04-.57-.04-.57.32-.42.64-.84,1.31-1.44,17.58-.24,34.8-.3,52.02-.36,2.1.16,2.99,1.37,2.99,3.39,0,1.23.05,2.46.09,3.96.04.92.07,1.57.12,2.7.13,2.08.37,3.69.32,5.29-.06,2.5-1.23,3.95-4.1,3.42-.12-.04-.37-.12-.44-.32-3.15-8.83-5.6-10.73-14.12-10.71-4.83,0-9.66.23-14.48.4-.82.03-1.64.25-3.38.54,2.57,3.51,4.75,6.49,6.96,9.46.02,0-.02-.01.05.17,2.58,3.84,5.02,7.55,7.62,11.14,1.6,2.21,1.96,4.34.28,6.79-.99,1.18-1.85,2.24-2.87,3.42-1.25,1.61-2.35,3.09-3.53,4.65-.18.17-.28.27-.47.5-.24.28-.36.45-.49.6,0-.01-.02-.04-.17.08-1.41,1.6-2.66,3.08-3.9,4.57,0,0,.02-.01-.08.13-.26.44-.42.75-.72,1.18-1.55,1.95-2.97,3.75-4.36,5.58-.74.98-1.02,1.93.84,2.39,2.39,0,4.51,0,6.64,0,.45,0,.9,0,1.81,0,1.25,0,2.04,0,2.83-.01.45,0,.91,0,1.85,0,4.94,0,9.39-.01,13.83-.02,3.84-1.16,6.5-3.5,7.78-7.42.23-.71,1.26-1.59,1.95-1.61.73-.02,2.04.79,2.14,1.4.85,5.3.42,10.52-1.79,15.47-.24.54-1.01.84-1.71,1.35-4.32.09-8.47.07-12.61.07-12.49,0-24.98.05-37.48-.06-1.59-.01-3.16-.88-4.74-1.36.68-1.62,1.03-3.5,2.1-4.8,5.38-6.59,10.96-13.02,16.44-19.54.99-1.18,1.82-2.5,2.76-3.74,2.85-3.77,2.78-4.12-.04-7.96-5.5-7.48-10.9-15.04-16.37-22.54-.79-1.09-1.76-2.06-2.91-3.31-.45-.35-.62-.48-.8-.6,0,0,0,.03-.07-.1-.19-.28-.34-.4-.51-.49,0,0,.04,0,.06-.01Z"/>
  <path class="st1" d="M381.85,472.1c.84.01,1.69.02,3.05.02,5.18.03,9.83.08,14.49.12.18.61.37,1.22.58,2.03.18,4.54.49,8.89.39,13.24-.03,1.16-1.26,2.3-1.94,3.45-1.11-.72-2.85-1.19-3.23-2.19-3.07-8.05-9.45-9.44-16.96-8.93-2.58.17-5.19-.04-7.76.17-1.57.13-3.1.71-5.36,1.27,1.74,2.58,3.09,4.64,4.5,6.65,3.46,4.91,6.89,9.83,10.44,14.66,1.73,2.35.73,4.17-.74,6-5.09,6.34-10.22,12.65-15.31,19-.7.87-1.23,1.87-2.16,3.3,1.6.25,2.67.57,3.75.57,7.17.05,14.34.02,21.5.03,4.53.01,7.71-1.89,9.61-6.14.52-1.17,2.03-1.89,3.08-2.82.62,1.3,1.73,2.59,1.75,3.89.05,3.37-.3,6.76-.65,10.13-.28,2.73-1.93,4.1-4.7,4.1-5.33,0-10.65.09-15.98.03-10.06-.1-20.12-.28-30.18-.43-.97-.01-1.97.12-2.9-.07-.98-.21-2.54-.58-2.67-1.15-.21-.91.29-2.27.94-3.06,5.37-6.49,10.85-12.89,16.27-19.34,1.68-2,3.18-4.17,4.96-6.07,1.97-2.1,1.85-3.98.21-6.18-5.89-7.92-11.72-15.9-17.81-24.16-1.54-2.47-2.85-4.63-4.02-6.9.59-.47,1.04-.83,1.76-1.18,11.87,0,23.47-.02,35.08-.04Z"/>
  <path class="st1" d="M163.91,474.48c.53-1.04,1.07-2.08,1.71-3.28,2.43.06,4.75.28,7.35.75.82,1.26,1.35,2.27,1.95,3.47,1.6,4.09,3.14,7.99,4.68,11.88,0,0,.02-.02.06.16.2.54.37.89.53,1.25,0,0-.03.1.03.34.22.57.39.9.56,1.23,3.22,8.7,6.42,17.4,9.65,26.1,1.58,4.25,3.23,8.47,4.76,12.73,1.05,2.9,2.55,5.33,5.26,7.05.96.61,1.37,2.08,2.03,3.16-1.1.33-2.2.92-3.31.95-5.99.17-11.98.2-17.98.27-.68,0-1.42.19-2.01-.04-.74-.28-1.77-.78-1.92-1.38-.15-.58.48-1.63,1.07-2.08,4.12-3.18,4.14-3.15,2.72-8.09-2.58-8.99-2.57-8.93-12.05-8.22-3.47.26-6.96.23-10.44.18-2.45-.03-4.06.85-4.79,3.28-.44,1.48-1.11,2.89-1.6,4.36-1.55,4.56-1.25,5.34,2.53,8.31.65.51,1.37,1.69,1.19,2.29-.2.65-1.41,1.37-2.2,1.39-5.6.11-11.2.09-16.8-.02-.72-.01-1.93-.71-2-1.22-.11-.76.37-2.04,1-2.39,7.25-3.99,8.58-11.52,11.29-18.71,5.68-14.83,11.2-29.28,16.73-43.72M170.89,499.81c-1.2-3.11-2.41-6.21-3.68-9.52-.58.49-.9.63-.98.85-2.47,6.62-4.96,13.24-7.35,19.89-.69,1.91.62,2.38,2.2,2.39,3.78.01,7.56-.03,11.33.02,2.28.03,3-.91,2.21-3.07-1.22-3.37-2.4-6.75-3.73-10.57Z"/>
  <path class="st1" d="M83.24,475.87c2.06-2.75,4.46-4.71,8.56-4.12,2.01.17,3.55.36,5.09.37,4.71.04,4.87-.05,6.51,4.47,3.42,9.45,6.62,18.97,9.97,28.44,1.45,4.09,3.07,8.12,4.61,12.18,0,.2.01.41.12.89.23.44.37.6.5.76,0,0-.03.18,0,.48.22.93.41,1.57.6,2.2.12.3.24.61.5,1.23.29.65.46.97.62,1.3,1.36,5,2.74,9.96,8.35,12.09.71.27,1.64,1.57,1.48,2.1-.25.81-1.3,1.87-2.09,1.94-2.87.27-5.78.15-8.67.21-4.25.09-8.51.29-12.76.23-1.1-.01-2.19-.82-3.29-1.26.55-1.04.86-2.37,1.69-3.06,2.49-2.03,3.33-4.41,2.31-7.45-2.72-8.17-5.43-16.34-8.15-24.52-.55-1.65-1.01-3.33-1.67-4.94-.26-.65-.99-1.61-1.43-1.57-.71.07-1.66.69-1.97,1.34-1.27,2.71-2.4,5.49-3.47,8.29-2.44,6.42-4.83,12.86-7.22,19.31-1.42,3.84-1.02,7.16,2.59,9.77.74.54.88,1.91,1.29,2.9-.93.35-1.86.98-2.8,1.01-5.31.15-10.63.15-15.94.19-.87,0-1.79.12-2.59-.13-.65-.2-1.55-.81-1.63-1.35-.11-.7.27-1.99.78-2.21,7.29-3.04,9.46-9.92,12.1-16.28,4.41-10.63,8.54-21.38,12.59-32.16.69-1.83.43-4.03.61-6.05-1.91.07-3.83.11-5.74.23-.76.05-1.52.28-2.5.43.2-2.35.64-4.71,1.02-7.27Z"/>
  <path class="st1" d="M440.32,473.27c.19.7.22,1.26.22,2.04-6.82,2.75-7.51,3.73-7.51,11.08,0,12.78-.02,25.56.04,38.35,0,2.12.27,4.24.57,6.34.37,2.6,1.82,4.33,4.3,5.4.95.41,1.56,1.59,2.33,2.42-1.02.5-2.04,1.41-3.07,1.43-6.77.08-13.53-.03-20.3-.08-.68,0-1.41.07-2.01-.17-.65-.26-1.68-.85-1.66-1.26.03-.69.63-1.79,1.21-1.95,5.38-1.5,5.97-5.5,5.93-10.23-.13-13.56-.03-27.11-.05-40.67,0-6.81-1.08-8.24-7.61-10.3-.67-2.15.33-3.35,2.29-3.37,7.68-.09,15.37-.06,23.06,0,.7,0,1.39.54,2.26.97Z"/>
  <path class="st1" d="M476.25,263.62c3.45-10.55,1.6-20.36-4.03-29.28-5.08-8.05-12.67-13.7-20.7-18.68-1.22-.76-2.32-1.71-3.78-2.77-.64-.33-.97-.46-1.3-.59,0,0,0,.04-.05-.1-.21-.25-.37-.37-.52-.48,0,0,0,.04-.06-.1-.21-.25-.37-.37-.52-.49,0,0,0,.04-.1-.08-.42-.24-.74-.37-1.05-.5,0,0,0,.03-.05-.1-.21-.25-.37-.37-.52-.48,0,0,.02.03.04.02-4.02-3.55-8.18-6.95-12.05-10.66-5.08-4.87-9.78-10.08-12.38-17.22-.27-.65-.44-.93-.61-1.22,0,0-.01.05,0-.14-.18-.66-.37-1.14-.57-1.61,0,0,0,.05,0-.17-.38-1.34-.76-2.47-1.14-3.6,0,0,.06-.01.06-.32-.26-3.08-.52-5.85-.78-8.62.02-.28.04-.57.08-1.3.13-1.44.23-2.42.33-3.4,1.74-11.96,8.41-20.89,17.7-28.6.97-.65,1.66-1.1,2.51-1.64.34-.26.52-.42.84-.63.53-.3.92-.55,1.48-.89.46-.32.75-.55,1.03-.78-.02,0-.02.03.24.05.77,0,1.29,0,1.93.11.37.3.6.47.85.62,4.78,2.72,4.71,3.09.36,6.31-2.68,1.99-5.03,4.42-7.62,6.78.75.51,1.59,1.21,2.44,1.22,8.55.09,17.09.07,25.8.19,1.41,1.71,2.67,3.31,3.65,4.93-10.97.05-21.67.05-32.37.14-1.8.01-3.61.37-5.55.69-1.09,1.81-2.19,3.43-2.96,5.18-1.65,3.75-1.08,4.59,3.04,4.6,13.18.03,26.35,0,39.53.01,1.06,0,2.3-.2,3.14.27.85.47,1.6,1.59,1.78,2.54.08.42-1.27,1.36-2.11,1.65-.87.3-1.92.1-2.88.1-13.47.01-26.93-.01-40.4.08-1.22,0-3,.35-3.56,1.19-2.43,3.59.68,9.31,4.93,9.36,12.69.15,25.38.26,38.07.42,4.2.05,4.53.59,2.89,4.69-9.02.03-17.76.06-26.74.06-.89-.01-1.54,0-2.45,0-3.73,0-7.2-.08-10.67.06-.85.03-1.68.77-2.47,1.38.86,1.62,1.66,3.05,2.49,4.46,2.21,3.75,5.3,5.46,9.84,5.2,5.98-.35,12-.12,18-.1,1.2,0,2.41.18,4.17.32-2.03,3.47-4.98,4.02-7.9,4.19-3.76.23-7.55.04-11.32.08-1.1.01-2.2.19-3.45.31.24.65.26,1.01.45,1.15,8.35,6.27,16.68,12.56,25.12,18.7.55.4,2.41-.01,2.86-.63,2.49-3.44,4.94-6.95,7-10.66,1.64-2.97.77-6.25-1.85-8.88-.75.69-1.5,1.39-2.26,2.09-2.77,2.56-5.53,5.12-8.31,7.67-1.96,1.8-4.11,1.79-6.47.79-2.6-1.1-2.74-2.14-.82-4.2,4.6-4.96,9.42-9.77,13.5-15.14,10.61-13.98,9.63-29.28-1.88-42.65-7.61-8.84-18.07-13.75-27.28-20.68-.35-.25-.56-.37-.77-.47,0,.02.05,0-.08-.11-.44-.24-.76-.37-1.05-.48.03,0,.05-.04.05-.04-3.1-2.76-6.36-5.36-9.27-8.3-9.63-9.74-14.98-21.25-13.96-35.52,0-.27-.04-.3.05-.42.21-.43.33-.75.45-1.06.15-.23.29-.46.63-.93.32-.43.46-.62.6-.81,3.68-.77,5.56.89,5.37,4.61-.06,1.21.21,2.44.35,4.13,1.4,4.67,2.25,9.14,4.25,13.01,4.25,8.22,10.69,14.56,18.38,19.79,8.71,5.92,17.14,12.25,25.77,18.5.19.24.32.35.46.43,0-.02-.04-.02.04.08.19.24.32.35.6.54.28.25.43.39.58.54,3.18,4.9,6.41,9.76,9.49,14.72.74,1.19.97,2.7,1.54,4.5.63,3.64,1.14,6.85,1.69,10.05.17.99-.32,2.62,1.73,2.09,2.3-1.16,3.79-.51,4.68,1.91,3.78,10.29,7.61,20.57,11.52,31.33.15,10.73.2,20.99.25,31.25.04,2.59.22,5.19.09,7.77-.35,7.39-4.32,13.27-8.34,19.05-3.3,4.74-6.84,9.31-10.54,14.22-.43.46-.59.67-.75.87-.12.07-.23.17-.48.52-.29.55-.4.88-.52,1.21,0,0,.03,0-.12.04-.25.2-.36.37-.46.54,0,0,.03.02-.14.06-.33.2-.5.36-.67.53-.11.06-.2.15-.31.35-4.27,5.34-9.01,10.24-11.69,17.01-.33.63-.45.95-.57,1.26,0,0,.04-.01-.09.09-.25.42-.37.74-.49,1.06,0,0,.04,0-.11.13-.25.53-.36.92-.47,1.32,0,0,.03,0-.14.13-.28.4-.39.67-.49.95,0,0,0,.06-.11.21-.22.54-.32.94-.42,1.34,0,0,.03,0-.13.07-.26.42-.36.75-.46,1.08,0,0,.03,0-.12.08-.26.42-.36.76-.46,1.09,0,0,.03-.02-.12.11-.55,1.01-.94,1.9-1.34,2.78-.11.38-.21.76-.44,1.43-.22.69-.32,1.09-.42,1.49,0,0,.03,0-.12.08-.26.42-.36.75-.46,1.09,0,0,.04,0-.11.11-.27.48-.4.84-.53,1.2,0,0,0,.08-.1.24-.21.56-.32.96-.42,1.36,0,0,.03,0-.13.12-.26.53-.36.93-.45,1.33,0,0,.03-.03.02-.05-2.53,5.94-5.15,11.86-7.55,17.86-5.45,13.64-10.5,27.44-16.24,40.95-8.21,19.32-17.18,38.29-31.07,54.38-5.5,6.37-11.1,12.67-18.3,17.24-1.62,1.03-3.4,2.11-5.3-.39,1.46-1.52,2.79-3.17,4.37-4.52,18.49-15.84,31.25-35.73,40.78-57.85,5.31-12.33,10.23-24.84,15.34-37.48.02-.22.03-.37.16-.62.23-.71.32-1.16.42-1.61,2.34-5.48,4.69-10.95,7-16.44,4.19-9.96,8.16-20.02,12.63-29.85,2.06-4.53,5.07-8.63,7.76-13.1.39-.57.68-.96,1.14-1.62.29-.48.41-.7.53-.91,0,0-.03,0,.1-.04.3-.16.4-.32.44-.52,5.66-6.93,11.35-13.83,16.96-20.8,1.08-1.34,1.84-2.93,2.82-4.6.06-.2.02-.16.15-.22.29-.17.42-.32.64-.63,4.39-6.32,6.59-13.09,6.16-20.65-.25-4.45-.1-8.93-.58-13.34-.51-4.69-.9-9.56-2.5-13.93-3.27-8.89-7.3-17.5-11.06-26.21-.31-.73-.9-1.35-1.6-2.37-1.63,2.68-2.85,4.85-1.44,7.62,1.4,2.76,2.52,5.67,4.02,8.38,7.75,13.99,11.18,29.01,10.83,44.93-.05,2.15-.69,4.29-1.05,6.44-.4-.01-.79-.02-1.19-.03-.26-20.36-3.41-39.88-15.9-56.85-1.99,1.3-2.44,2.9-1.69,4.86,1,2.62,1.99,5.25,3.1,7.83,4.66,10.74,6.95,21.87,4.08,33.41-1.21,4.84-1,9.31.29,13.93.5,5.25.24,10.45-2.26,15.19-.74,1.41-2.45,2.96-3.87,3.13-.97.12-2.22-2.03-3.39-3.37M474.58,215.13c-3.45,5.23-3.39,5.68.53,9.13,1.26,1.11,2.27,1.12,2.99-.39,1.08-2.27,2.32-4.52,2.93-6.93.74-2.94,0-5.78-2.19-8.99-1.6,2.72-2.81,4.77-4.25,7.17M499.29,203.01c.27.3.54.6.82.9.22-1.71.08-3.24-.42-4.64-2.85-8.09-5.76-16.17-8.74-24.22-.28-.76-1.12-1.31-1.71-1.96-.42.96-1.09,1.9-1.2,2.9-.08.77.5,1.63.84,2.43,3.41,8.09,6.84,16.17,10.41,24.6M479.5,231.76c.6.78,1.2,1.56,1.79,2.34l.87-.19c.35-2.81.69-5.61,1.04-8.42-.38-.09-.76-.17-1.14-.26-1.52,1.72-3.03,3.46-2.57,6.52M500.76,205.8l.08.1s-.01-.14-.08-.1Z"/>
  <path class="st7" d="M464.89,306.92c.23-.74.63-1.63,1.16-2.65-.24.74-.62,1.63-1.16,2.65Z"/>
  <path class="st7" d="M469.76,296.47c.04-.17.16-.49.41-.93-.03.18-.18.48-.41.93Z"/>
  <path class="st7" d="M469.18,297.63c.04-.17.16-.49.4-.94-.03.18-.17.48-.4.94Z"/>
  <path class="st7" d="M468.59,299.03c.04-.21.15-.6.39-1.15-.01.22-.17.59-.39,1.15Z"/>
  <path class="st7" d="M467.44,301.66c.02-.21.12-.61.37-1.16,0,.23-.14.6-.37,1.16Z"/>
  <path class="st7" d="M466.85,302.85c.02-.19.12-.52.37-.95,0,.2-.14.51-.37.95Z"/>
  <path class="st7" d="M466.27,304.03c.02-.19.12-.52.37-.96,0,.2-.14.51-.37.96Z"/>
  <path class="st7" d="M463.95,309.8c.02-.22.12-.61.37-1.16,0,.23-.14.6-.37,1.16Z"/>
  <path class="st7" d="M463.37,311c.02-.19.12-.52.37-.95,0,.2-.14.5-.37.95Z"/>
  <path class="st7" d="M462.73,312.28c.04-.19.17-.55.44-1.05-.03.2-.19.54-.44,1.05Z"/>
  <path class="st7" d="M462.21,313.87c.02-.21.12-.61.37-1.16,0,.22-.14.6-.37,1.16Z"/>
  <path class="st7" d="M461.61,315.31c.03-.21.12-.61.37-1.16,0,.23-.15.6-.37,1.16Z"/>
  <path class="st7" d="M467.99,300.11c0-.08.11-.36.38-.77.02.1-.13.34-.38.77Z"/>
  <path class="st1" d="M427.84,90.76c-.21-.14-.42-.28-.82-.66-.43-.7-.67-1.17-.91-1.63,0,0,.06,0,.08-.01-.18-2.79,1.71-2.82,3.66-2.82,14.4,0,28.81,0,43.21,0,.97,0,1.93-.04,2.9-.02,2,.04,3.03-.95,3.22-2.92.14-1.44.03-3.01.59-4.28.51-1.15,1.65-2.51,2.74-2.74.72-.15,2.6,1.47,2.64,2.36.2,4.39.42,8.88-.22,13.2-1.14,7.6-4.59,14.32-9.51,20.22-1.71,2.05-3.58,3.96-5.54,6.06-1.3,1.16-2.4,2.24-3.59,3.22-4.24,3.5-5.26,3.57-10.05.81-2.43-1.4-2.34-2.23-.14-3.95,4.16-3.25,8.18-6.7,12.47-10.35.74-3.02-1.45-1.84-2.36-1.85-10.28-.14-20.56-.14-30.85-.18l-2.03-3.89c1.46-.34,2.92-.98,4.39-.98,9.07,0,18.13.16,27.2.26.97.01,1.93.01,2.9-.03,6.09-.25,7.41-1.36,8.88-7.3.34-1.36.25-2.32-1.9-2.43-15.97-.04-31.47-.07-46.96-.09Z"/>
  <path class="st7" d="M504.25,233.18c-.14-10.25-.19-20.51-.24-31.04.19.86.53,1.99.54,3.12.03,9.12,0,18.25-.04,27.63-.01.26-.18.28-.26.29Z"/>
  <path class="st9" d="M487.61,168.5c-1.94.71-1.45-.91-1.62-1.91-.55-3.2-1.05-6.41-1.62-9.84.69,2.32,1.44,4.85,2.14,7.39.38,1.38.67,2.78,1.1,4.35Z"/>
  <path class="st9" d="M416.15,77.58c-.04.17-.16.48-.39.93.03-.17.17-.48.39-.93Z"/>
  <path class="st9" d="M417.35,75.82c-.03.05-.16.24-.43.56.02-.06.17-.24.43-.56Z"/>
  <path class="st2" d="M483.72,276.68c.03-.18.14-.51.38-.97-.02.19-.16.5-.38.97Z"/>
  <path class="st2" d="M484.76,274.96c.03-.06.19-.27.5-.59-.02.07-.19.26-.5.59Z"/>
  <path class="st2" d="M483.16,277.31c0-.07.1-.24.34-.46.02.1-.11.23-.34.46Z"/>
  <path class="st2" d="M482.39,277.9c.03-.06.2-.22.53-.44-.02.07-.2.21-.53.44Z"/>
  <path class="st2" d="M415.99,166.57c.37,2.63.63,5.4.9,8.44-.33-2.58-.67-5.44-.9-8.44Z"/>
  <path class="st2" d="M416.84,175.6c.37.89.75,2.01,1.16,3.36-.37-.89-.76-2.01-1.16-3.36Z"/>
  <path class="st2" d="M416.41,161.9c0,.8-.09,1.79-.23,3.01.02-.78.07-1.81.23-3.01Z"/>
  <path class="st2" d="M418.03,179.32c.15.29.34.76.55,1.43-.16-.28-.33-.77-.55-1.43Z"/>
  <path class="st2" d="M418.62,181.03c.1.14.26.42.46.87-.11-.13-.25-.43-.46-.87Z"/>
  <path class="st7" d="M307,246.52c-.94-.42-1.72-.9-2.51-1.38.47-.36.93-.71,1.4-1.07.42.8.84,1.59,1.11,2.45Z"/>
  <path class="st0" d="M203.04,238.85c2.47,1.01,4.79,1.93,7.02,3.02.53.26.77,1.09,1.15,1.65-.65,0-1.4.21-1.92-.04-2.31-1.12-4.55-2.37-6.79-3.63-.05-.03.24-.68.54-1Z"/>
  <path class="st1" d="M239.25,339.57c-2.2-3.75-3.74-7.99-6.44-11.28-6.61-8.06-13.56-15.87-20.76-23.41-5.73-5.99-12.04-11.41-18.25-17.21-.62-.55-1.07-.98-1.79-1.63-.81-.52-1.35-.81-1.89-1.1,0,0-.02.02-.05-.12-.2-.25-.37-.35-.54-.45,0,0-.02.03-.06-.15-.21-.36-.37-.54-.53-.72,0,0-.14-.21-.33-.39-.41-.36-.62-.55-.83-.73-9.69-7.84-19.27-15.84-29.12-23.48-6.72-5.21-13.84-9.91-20.75-14.87-1.09-.78-2.05-1.75-3.09-2.89-.03-.25.14-.43.14-.43,9.05,5.35,18.39,10.26,27.08,16.14,17.42,11.78,32.87,26.01,48.16,40.38,2.96,2.78,5.73,5.75,8.86,8.89,7.4,8.58,15.52,16.16,19.86,26.56.17,2.28.33,4.56.37,6.89Z"/>
  <path class="st1" d="M247.11,270.98c-.19.39-.38.77-.73,1.46-.27.53-.4.75-.52.98,0,0-.01.11-.12.28-.22.39-.34.61-.46.83,0,0,.05,0-.1.09-.35.42-.55.75-.76,1.07-.19.22-.39.43-.56.66-6.94,9.11-13.91,11.77-24.58,7.58-9.57-3.76-18.76-8.59-27.82-13.51-6.17-3.35-11.81-7.68-17.73-11.82.03-.32.09-.4.15-.47,8.81,4.41,17.54,9,26.46,13.19,6.8,3.19,13.69,6.34,20.82,8.66,9,2.92,13.95.69,19.47-6.92,4.16-5.73,6.8-12.1,8.76-18.82.37-1.27.74-2.54,1.31-3.76.95,5.37.04,10.5-1.82,15.93-.1.65-.1.9-.11,1.15,0,0,.03-.01-.12.08-.26.43-.37.76-.47,1.09,0,0,.05-.01-.08.1-.26.47-.4.82-.53,1.17,0,0,0,.08-.08.23-.19.35-.29.55-.39.76Z"/>
  <path class="st1" d="M242.68,302.42s-.11-.05-.36,0c-.62.22-.99.39-1.36.56-.37,0-.74.01-1.55.07-1.61.04-2.78.03-3.95.02-8.14-.3-14.01-5.56-20.45-9.5-3.26-1.99-6.26-4.41-9.38-6.64l.48-.82c4.13,2.09,8.17,4.42,12.42,6.23,5.4,2.29,10.94,4.32,16.51,6.15,4.2,1.38,7.68-.26,10.04-3.85,4.07-6.2,7.03-12.87,7.53-20.41.02-.25.22-.48.36-.76,3.96,4.4-2.04,22.82-9.4,28.29-.52.34-.71.5-.9.65Z"/>
  <path class="st0" d="M182.81,301.3c-3.76-4.51-7.39-8.89-11.16-13.41-.2-.27-.28-.38-.59-.69-.38-.4-.56-.59-.74-.77-.21-.25-.42-.5-.83-.98-.43-.53-.66-.84-.9-1.14-.23-.3-.45-.61-.92-1.13-.44-.33-.64-.45-.84-.56,0,0,0,.03-.04-.11-.2-.25-.36-.36-.52-.47,0,0-.02.02-.03-.16-.19-.5-.37-.81-.55-1.13-.04-.12-.11-.23-.39-.5-.4-.3-.59-.42-.79-.53,0,0,0,.03-.03-.16-.39-.7-.74-1.21-1.1-1.72-.04-.12-.11-.22-.39-.5-.39-.3-.59-.42-.79-.53,0,0,0,.03,0-.16-.19-.46-.38-.74-.58-1.02,0,0-.01.03-.07-.21-.21-.54-.36-.84-.52-1.15,1.09.72,2.36,1.26,3.24,2.18,3.48,3.67,6.83,7.45,10.49,11.43.44.35.63.47.81.58,0,0-.05-.04-.08-.02,2.69,3.82,5.4,7.62,8.21,11.56.67,1.29,1.24,2.43,1.82,3.83,0,.25-.09.33-.09.33-.82-.92-1.65-1.83-2.61-2.87Z"/>
  <path class="st2" d="M235.55,303.22c1.08-.13,2.26-.12,3.68-.13-.95,1.11-2.18,1.91-3.68.13Z"/>
  <path class="st2" d="M160.16,273.32c-.21-.46-.42-.92-.63-1.39.25.06.5.13.74.38-.05.46-.07.73-.1,1Z"/>
  <path class="st1" d="M173.6,258.47c-.49-.12-.89-.35-1.28-.58.06-.13.11-.26.17-.38.4.14.79.29,1.29.53.04.17-.03.25-.19.43Z"/>
  <path class="st2" d="M163.44,278.03c.3.33.66.83,1.06,1.52-.31-.33-.66-.83-1.06-1.52Z"/>
  <path class="st2" d="M190.24,285.08c.42.15.96.45,1.63.88-.42-.15-.96-.45-1.63-.88Z"/>
  <path class="st2" d="M161.04,274.29c.15.3.3.6.53,1.14-.27-.28-.62-.8-.88-1.38.17.03.27.11.36.2,0,0,0,.03,0,.03Z"/>
  <path class="st0" d="M161.03,274.05c-.08.12-.17.03-.41-.17-.19-.24-.25-.34-.39-.5-.04-.33,0-.6.12-.98.29.41.48.93.69,1.65Z"/>
  <path class="st2" d="M241.15,302.92c.18-.1.55-.27,1.11-.49-.18.11-.55.26-1.11.49Z"/>
  <path class="st2" d="M247.66,269.82c.05-.18.18-.53.44-1.02-.04.19-.2.52-.44,1.02Z"/>
  <path class="st2" d="M248.81,267.44c-.02-.14-.02-.39.02-.83.03.12.02.42-.02.83Z"/>
  <path class="st2" d="M248.27,268.57c.03-.18.13-.52.38-.96,0,.2-.15.5-.38.96Z"/>
  <path class="st1" d="M134.69,240.98c-.01-.06.06-.22.19-.32.06.05-.1.23-.19.32Z"/>
  <path class="st2" d="M244.55,275.54c.09-.17.29-.49.64-.94-.08.18-.3.49-.64.94Z"/>
  <path class="st2" d="M161.68,275.8c.13.13.32.4.52.86-.14-.12-.3-.41-.52-.86Z"/>
  <path class="st2" d="M165.76,280.92c.12.15.3.46.5.96-.13-.14-.28-.47-.5-.96Z"/>
  <path class="st2" d="M168.7,284.48c.13.14.36.45.69.92-.13-.14-.36-.45-.69-.92Z"/>
  <path class="st2" d="M162.34,276.92c.06.01.26.13.58.37-.07,0-.25-.14-.58-.37Z"/>
  <path class="st2" d="M166.37,282.15c.06,0,.22.11.44.36-.08.01-.22-.12-.44-.36Z"/>
  <path class="st2" d="M245.97,273.25c.02-.06.14-.29.39-.66,0,.07-.15.28-.39.66Z"/>
  <path class="st2" d="M245.39,274.38c.01-.07.13-.29.38-.63,0,.07-.14.28-.38.63Z"/>
  <path class="st1" d="M170.64,256.78s.01,0,0,0Z"/>
  <path class="st2" d="M164.65,279.83c.06.01.26.13.58.37-.07,0-.25-.14-.58-.37Z"/>
  <path class="st2" d="M247.2,270.84c0-.06.11-.26.33-.59,0,.07-.12.26-.33.59Z"/>
  <path class="st2" d="M231.66,341.08s0,0,0,0Z"/>
  <path class="st2" d="M166.97,282.73c.06.01.26.13.58.37-.07,0-.26-.14-.58-.37Z"/>
  <path class="st2" d="M187.91,282.52c.06.04.27.22.62.56-.07-.03-.27-.23-.62-.56Z"/>
  <path class="st2" d="M189.02,283.65c.06.03.22.22.45.57-.07-.03-.21-.22-.45-.57Z"/>
  <path class="st2" d="M189.62,284.47c.07,0,.24.1.46.34-.1.02-.23-.11-.46-.34Z"/>
  <path class="st2" d="M170.44,286.58c.05.04.23.22.53.57-.06-.04-.23-.23-.53-.57Z"/>
  <path class="st2" d="M175.44,288.38c-.06-.01-.24-.13-.53-.37.06,0,.23.14.53.37Z"/>
  <path class="st2" d="M242.83,302.32c.04-.05.23-.21.6-.43-.03.06-.24.2-.6.43Z"/>
  <path class="st8" d="M253.77,158.74s-.06.18-.06.18c0,0,.03-.19.06-.18Z"/>
  <path class="st1" d="M238.17,104.95c5.69-1.2,11.14-2.44,16.64-3.46,2.11-.39,4.48-.78,5.93,2.21-.87.46-1.82.72-2.44,1.33-1.03,1.01-2.48,2.16-2.64,3.4-.35,2.57-.69,4.72-3.57,5.6-3.1.94-5.31-.37-7.26-2.83,1.22.11,2.45.22,4.19.38-2.9-6.56-9.15-2.85-13.71-5.4,1.1-.49,1.87-.84,2.86-1.23Z"/>
  <path class="st0" d="M233.83,103.12c1.07-.96,2.22-2.36,3.59-2.61,5.77-1.07,11.59-1.95,17.43-2.54,1.36-.14,2.86,1.12,4.35,1.94-7.61-.33-15.07.75-22.4,2.97-.88.27-1.86.23-2.97.24Z"/>
  <path class="st1" d="M210.87,319.54c.09.18.12.39.15.77-.07-.13-.15-.43-.15-.77Z"/>
  <path class="st1" d="M171.69,323.2c-.01.08-.13.25-.29.34-.04-.07.18-.25.29-.34Z"/>
  <path class="st0" d="M185.57,304.05s.1.16.1.16c0,0-.18.05-.22.01s.06-.13.11-.17Z"/>
  <path class="st1" d="M211.07,320.54c.08,0,.23.12.47.38-.07,0-.23-.12-.47-.38Z"/>
  <path class="st7" d="M444.08,343.62c-.02.24-.11.69-.36,1.33,0-.25.13-.68.36-1.33Z"/>
  <path class="st2" d="M372.05,316.37s-.03,0-.03,0c0,0,.02,0,.03,0Z"/>
  <path class="st1" d="M224.85,93.86c6.96-4.15,14.33-7.77,22.65-8.07,4.26-.15,8.57.98,13.06,1.57,2.24,1.49,4.37,2.84,6.26,4.47.66.57.72,1.82,1.05,2.76-.96.08-2.01.44-2.88.19-3.62-1.04-7.14-2.46-10.79-3.36-6.29-1.55-12.48.09-18.68,1.04-3.5.54-7,1.01-10.67,1.4Z"/>
  <path class="st1" d="M452.29,268.4s-.03,0,.11-.14c.25-.53.37-.92.48-1.31,0,0-.03,0,.11-.05.26-.21.37-.37.48-.53,0,0-.04,0,.09-.12.34-.43.55-.74.77-1.06,4.64-5.91,10.87-9.7,17.39-13.11.51-.26,1.11-.6,1.62-.54.77.1,1.49.52,2.23.81-.31.64-.45,1.5-.96,1.88-2.78,2.07-5.64,4.02-8.79,6.23-.56.38-.8.54-1.05.7,0,0-.15-.02-.35.06-.35.23-.48.37-.62.52-.12.1-.23.21-.41.42-5.91,4.37-10.24,9.58-10.34,17.41-.31-.03-.62-.06-.93-.09-.28-2.27-.56-4.54-.8-7.06.14-.37.21-.5.31-.94.06-.56.07-.82.08-1.09,0,0,0-.11.11-.37.22-.71.34-1.16.46-1.61Z"/>
  <path class="st2" d="M473.12,281.63c-.01.06-.13.28-.38.62,0-.07.14-.27.38-.62Z"/>
  <path class="st2" d="M473.66,281.01c.06.1-.04.26-.33.44-.01-.08.11-.21.33-.44Z"/>
  <path class="st9" d="M454.2,265.34c-.1.16-.31.48-.65.93.09-.17.31-.47.65-.93Z"/>
  <path class="st9" d="M452.78,267.13c-.02.21-.14.6-.38,1.14.01-.22.15-.59.38-1.14Z"/>
  <path class="st9" d="M452.2,268.61c-.03.24-.15.69-.39,1.34.02-.24.17-.68.39-1.34Z"/>
  <path class="st9" d="M451.69,270.5c.02.14,0,.41-.02.86-.01-.12-.01-.43.02-.86Z"/>
  <path class="st9" d="M446.6,212.37c.18.04.51.17.98.4-.18-.03-.5-.18-.98-.4Z"/>
  <path class="st9" d="M444.27,210.63c.17.04.49.17.93.41-.18-.03-.48-.18-.93-.41Z"/>
  <path class="st9" d="M443.64,210.07c.06,0,.22.12.45.36-.08.01-.22-.12-.45-.36Z"/>
  <path class="st9" d="M464.97,261.05c.05-.06.3-.22.76-.44-.05.07-.31.2-.76.44Z"/>
  <path class="st9" d="M463.92,261.63c.02-.05.16-.2.43-.42-.02.06-.17.19-.43.42Z"/>
  <path class="st9" d="M453.36,266.46c0,.06-.12.22-.37.45-.01-.08.12-.22.37-.45Z"/>
  <path class="st9" d="M445.38,211.22c.06.01.21.14.44.38-.06,0-.2-.14-.44-.38Z"/>
  <path class="st9" d="M445.97,211.81c.06.01.22.13.44.37-.07,0-.21-.13-.44-.37Z"/>
  <path class="st9" d="M467.71,149.39c-1.23.23-2.73.68-4.23.68-10.98.06-21.97.03-33.25.02,1.51-.2,3.31-.56,5.11-.57,10.7-.08,21.39-.09,32.37-.14Z"/>
  <path class="st9" d="M471.25,180.3c-1.32.21-2.92.56-4.53.6-6.04.17-12.08.28-18.12.32-1.19,0-2.39-.38-3.71-.71,8.61-.16,17.34-.19,26.36-.22Z"/>
  <path class="st2" d="M435.83,143.04c1.5.13,2.9.58,4.3.6,6.54.09,13.09.03,19.63.08,1.23.01,2.47.29,3.93.54-8.32.08-16.87.1-25.42,0-.85,0-1.7-.71-2.44-1.22Z"/>
  <path class="st9" d="M442.06,180.36c-4.04.41-8.34.8-12.91,1.22.57-.39,1.39-1.13,2.24-1.16,3.46-.14,6.93-.07,10.67-.06Z"/>
  <path class="st9" d="M440.3,129.22c.31-.05.89-.08,1.63-.06-.34.06-.86.07-1.63.06Z"/>
  <path class="st9" d="M439.97,123.26c-.18-.03-.48-.18-.93-.41.17.04.49.17.93.41Z"/>
  <path class="st9" d="M439.04,129.95c.14-.13.43-.35.89-.68-.14.13-.43.36-.89.68Z"/>
  <path class="st9" d="M493.68,255.29c.03-.1.19-.26.43-.45-.02.14-.15.28-.43.45Z"/>
  <path class="st9" d="M500.79,205.79s.04.12.04.12c0,0-.08-.1-.04-.12Z"/>
  <path class="st8" d="M472.08,136.25s.17.14.38.35c-.06,0-.2-.1-.38-.35Z"/>
  <path class="st8" d="M471.58,135.74s.17.14.38.35c-.06,0-.19-.11-.38-.35Z"/>
  <path class="st9" d="M440.82,123.84c-.07-.01-.27-.15-.63-.39.06.02.28.14.63.39Z"/>
  <path class="st9" d="M436.72,131.48c.04-.05.23-.2.56-.46-.04.05-.22.21-.56.46Z"/>
  <path class="st2" d="M428.07,90.85c15.27-.06,30.77-.04,46.53,0-.97.19-2.2.53-3.44.53-13.15.03-26.3.03-39.45,0-1.14,0-2.29-.28-3.65-.52Z"/>
  <path class="st9" d="M435.61,105.31c10.06-.05,20.34-.05,30.62.09.91.01,3.1-1.16,2.46,1.7-1.52-.3-2.93-1.08-4.35-1.1-7.98-.12-15.97-.03-23.95-.08-1.52,0-3.04-.33-4.78-.6Z"/>
  <path class="st8" d="M426.18,88.66c.18.28.42.75.73,1.4-.17-.28-.42-.75-.73-1.4Z"/>
  <g>
    <path d="M80.5,564.05c6.62,0,9.6,2.93,10.51,3.94l-4.8,5.33c-1.1-1.34-2.69-3.07-6.24-3.07-4.51,0-6.82,3.41-6.82,10.95,0,6.96,2.4,11.14,7.44,11.14,3.12,0,4.99-1.63,6-2.83l4.03,5.18c-1.44,1.73-4.85,3.94-10.66,3.94-10.32,0-14.35-6.91-14.35-16.95,0-10.61,5.04-17.62,14.88-17.62Z"/>
    <path d="M112.85,564.49l10.23,33.65h-7.68l-2.11-7.73h-11.28l-2.16,7.73h-7.39l10.18-33.65h10.22ZM103.68,584.36h7.92l-1.3-4.7c-1.3-4.66-1.97-7.1-2.54-10.08h-.19c-.58,2.88-1.3,5.62-2.5,9.89l-1.39,4.9Z"/>
    <path d="M134.26,573.66c.34,3.36.48,5.95.48,11.76v12.72h-7.01v-33.65h8.78l6.86,13.25c1.68,3.22,3.5,6.96,4.75,10.32h.19c-.38-4.7-.38-9.36-.38-12.91v-10.66h6.96v33.65h-8.59l-7.39-14.21c-1.68-3.26-3.07-6.58-4.46-10.27h-.19Z"/>
    <path d="M175.97,564.05c6.62,0,9.6,2.93,10.51,3.94l-4.8,5.33c-1.1-1.34-2.69-3.07-6.24-3.07-4.51,0-6.82,3.41-6.82,10.95,0,6.96,2.4,11.14,7.44,11.14,3.12,0,4.99-1.63,6-2.83l4.03,5.18c-1.44,1.73-4.85,3.94-10.66,3.94-10.32,0-14.35-6.91-14.35-16.95,0-10.61,5.04-17.62,14.88-17.62Z"/>
    <path d="M191.14,598.14v-33.65h19.92v6.05h-12.62v7.49h10.85v6.05h-10.85v8.02h13.2v6.05h-20.5Z"/>
    <path d="M229.1,564.49c7.44,0,11.66,2.83,11.66,9.89,0,5.86-3.17,8.59-7.1,9.36v.19c1.78.86,2.88,2.11,4.46,4.94l5.14,9.26h-8.74l-5.57-10.95c-.62-1.2-1.54-1.58-3.07-1.58h-.48v12.53h-7.25v-33.65h10.95ZM225.41,579.8h2.78c3.89,0,5.14-1.68,5.14-4.8s-1.82-4.46-5.04-4.46h-2.88v9.26Z"/>
    <path d="M261.02,598.14v-33.65h19.92v6.05h-12.62v7.49h10.85v6.05h-10.85v8.02h13.2v6.05h-20.5Z"/>
    <path d="M284.54,564.49h8.16l5.18,18.24c.86,3.12,1.73,6.1,2.4,9.31h.19c.62-3.12,1.34-6.1,2.26-9.36l5.18-18.19h7.73l-10.8,33.65h-9.5l-10.8-33.65Z"/>
    <path d="M331.92,598.62c-8.4,0-13.68-4.51-13.68-17.09s5.95-17.52,14.11-17.52,13.78,4.61,13.78,17.14-6,17.47-14.21,17.47ZM332.35,592.52c3.84,0,6.19-2.74,6.19-11.04s-2.54-11.38-6.62-11.38c-3.6,0-6.14,2.59-6.14,10.94s2.5,11.47,6.58,11.47Z"/>
    <path d="M359.57,564.49v27.6h12.38v6.05h-19.73v-33.65h7.34Z"/>
    <path d="M394.22,585.94v-21.46h7.34v20.4c0,10.27-6.29,13.73-13.73,13.73-8.69,0-12.34-5.23-12.34-12.15v-21.99h7.34v20.55c0,4.8,1.68,7.44,6,7.44,3.5,0,5.38-1.87,5.38-6.53Z"/>
    <path d="M413.81,570.54h-8.35v-6.05h24.05v6.05h-8.35v27.6h-7.34v-27.6Z"/>
    <path d="M433.92,564.49h7.34v33.65h-7.34v-33.65Z"/>
    <path d="M461.42,598.62c-8.4,0-13.68-4.51-13.68-17.09s5.95-17.52,14.11-17.52,13.78,4.61,13.78,17.14-6,17.47-14.21,17.47ZM461.85,592.52c3.84,0,6.19-2.74,6.19-11.04s-2.54-11.38-6.62-11.38c-3.6,0-6.14,2.59-6.14,10.94s2.5,11.47,6.58,11.47Z"/>
    <path d="M488.35,573.66c.34,3.36.48,5.95.48,11.76v12.72h-7.01v-33.65h8.79l6.86,13.25c1.68,3.22,3.5,6.96,4.75,10.32h.19c-.38-4.7-.38-9.36-.38-12.91v-10.66h6.96v33.65h-8.59l-7.39-14.21c-1.68-3.26-3.07-6.58-4.46-10.27h-.19Z"/>
    <path d="M102.1,622.09c7.44,0,11.67,2.83,11.67,9.89,0,5.86-3.17,8.59-7.1,9.36v.19c1.78.86,2.88,2.11,4.46,4.94l5.14,9.26h-8.74l-5.57-10.95c-.62-1.2-1.54-1.58-3.07-1.58h-.48v12.53h-7.25v-33.65h10.95ZM98.4,637.4h2.78c3.89,0,5.14-1.68,5.14-4.8s-1.82-4.46-5.04-4.46h-2.88v9.26Z"/>
    <path d="M120.58,655.74v-33.65h19.92v6.05h-12.62v7.49h10.85v6.05h-10.85v8.02h13.2v6.05h-20.5Z"/>
    <path d="M160.8,621.65c6.62,0,9.6,2.93,10.51,3.94l-4.8,5.33c-1.1-1.34-2.69-3.07-6.24-3.07-4.51,0-6.82,3.41-6.82,10.95,0,6.96,2.4,11.14,7.44,11.14,3.12,0,4.99-1.63,6-2.83l4.03,5.18c-1.44,1.73-4.85,3.94-10.66,3.94-10.32,0-14.35-6.91-14.35-16.95,0-10.61,5.04-17.62,14.88-17.62Z"/>
    <path d="M187.97,656.22c-8.4,0-13.68-4.51-13.68-17.09s5.95-17.52,14.11-17.52,13.78,4.61,13.78,17.14-6,17.47-14.21,17.47ZM188.4,650.12c3.84,0,6.19-2.74,6.19-11.04s-2.54-11.38-6.62-11.38c-3.6,0-6.14,2.59-6.14,10.94s2.5,11.47,6.58,11.47Z"/>
    <path d="M214.89,631.26c.34,3.36.48,5.95.48,11.76v12.72h-7.01v-33.65h8.78l6.86,13.25c1.68,3.22,3.5,6.96,4.75,10.32h.19c-.38-4.7-.38-9.36-.38-12.91v-10.66h6.96v33.65h-8.59l-7.39-14.21c-1.68-3.26-3.07-6.58-4.46-10.27h-.19Z"/>
    <path d="M257.71,646.76c0-5.33-15.5-4.61-15.5-15.22,0-5.57,4.9-9.94,11.86-9.94,5.62,0,9.12,2.59,10.22,4.03l-4.56,5.42c-.82-1.01-2.74-3.12-6.29-3.12-2.4,0-3.74,1.34-3.74,3.02,0,5.42,15.46,4.61,15.46,15.31,0,5.04-4.18,9.94-12.72,9.94-6.48,0-10.51-2.88-11.67-4.18l4.18-6.05c1.44,1.44,4.37,4.03,8.45,4.03,2.93,0,4.32-1.49,4.32-3.26Z"/>
    <path d="M274.27,628.14h-8.35v-6.05h24.05v6.05h-8.35v27.6h-7.34v-27.6Z"/>
    <path d="M304.94,622.09c7.44,0,11.67,2.83,11.67,9.89,0,5.86-3.17,8.59-7.1,9.36v.19c1.78.86,2.88,2.11,4.46,4.94l5.14,9.26h-8.74l-5.57-10.95c-.62-1.2-1.54-1.58-3.07-1.58h-.48v12.53h-7.25v-33.65h10.94ZM301.25,637.4h2.78c3.89,0,5.14-1.68,5.14-4.8s-1.82-4.46-5.04-4.46h-2.88v9.26Z"/>
    <path d="M342,643.54v-21.46h7.34v20.4c0,10.27-6.29,13.73-13.73,13.73-8.69,0-12.34-5.23-12.34-12.15v-21.99h7.34v20.55c0,4.8,1.68,7.44,6,7.44,3.5,0,5.38-1.87,5.38-6.53Z"/>
    <path d="M370.18,621.65c6.62,0,9.6,2.93,10.51,3.94l-4.8,5.33c-1.1-1.34-2.69-3.07-6.24-3.07-4.51,0-6.82,3.41-6.82,10.95,0,6.96,2.4,11.14,7.44,11.14,3.12,0,4.99-1.63,6-2.83l4.03,5.18c-1.44,1.73-4.85,3.94-10.66,3.94-10.32,0-14.35-6.91-14.35-16.95,0-10.61,5.04-17.62,14.88-17.62Z"/>
    <path d="M389.95,628.14h-8.35v-6.05h24.05v6.05h-8.35v27.6h-7.34v-27.6Z"/>
    <path d="M410.06,622.09h7.34v33.65h-7.34v-33.65Z"/>
    <path d="M437.57,656.22c-8.4,0-13.68-4.51-13.68-17.09s5.95-17.52,14.11-17.52,13.78,4.61,13.78,17.14-6,17.47-14.21,17.47ZM438,650.12c3.84,0,6.19-2.74,6.19-11.04s-2.54-11.38-6.62-11.38c-3.6,0-6.14,2.59-6.14,10.94s2.5,11.47,6.58,11.47Z"/>
    <path d="M464.49,631.26c.34,3.36.48,5.95.48,11.76v12.72h-7.01v-33.65h8.79l6.86,13.25c1.68,3.22,3.5,6.96,4.75,10.32h.19c-.38-4.7-.38-9.36-.38-12.91v-10.66h6.96v33.65h-8.59l-7.39-14.21c-1.68-3.26-3.07-6.58-4.46-10.27h-.19Z"/>
  </g>
</svg>